<svg width="800" height="252" viewBox="0 0 800 252" fill="none" xmlns="http://www.w3.org/2000/svg">
<path d="M433.807 119.984C484.358 97.0551 491.835 22.2319 419.929 22.2319H336.657L305.883 82.5732H320.365L283.556 226.788H380.102C450.538 227.391 482.215 144.451 433.807 119.984ZM380.102 174.292H355.966L365.017 141.709H387.946C415.1 147.138 398.206 175.498 380.102 174.292ZM394.584 104.898H374.069L380.102 76.5382H403.031C425.187 81.9694 406.05 106.106 394.584 104.898Z" fill="#005FAF" stroke="#005FAF" stroke-width="1.73022"/>
<path d="M631.482 99.2958L663.095 43.4894L620.319 21.1765L614.739 28.0628C591.663 15.8474 470.826 32.7136 463.26 151.913C467.783 251.908 579.83 233.92 590.82 227.576L621.637 163.871C591.455 183.751 529.655 193.295 527.041 133.577C532.462 84.3311 590.604 65.9407 631.482 99.2958ZM789.233 22.2319H692.048L661.157 80.7669H677.027L603.787 226.788H674.679L689.233 191.568H732.75L733.835 226.788H799.093L789.233 22.2319ZM708.949 144.148L732.748 87.34L733.833 144.148H708.949Z" fill="#005FAF" stroke="#005FAF" stroke-width="1.73022"/>
<path d="M182.332 217.023L186.107 215.928L181.967 210.206L182.332 217.023ZM120.352 216.049L119.622 221.164C121.501 220.98 123.814 222.6 124.737 218.972C124.667 216.144 122.515 215.989 120.352 216.049ZM150.43 215.928C150.117 214.535 148.954 213.509 146.046 214.468L147.02 219.702C149.409 219.172 150.638 217.759 150.43 215.928ZM82.4829 211.644L81.3202 216.295C83.1888 216.373 85.3775 217.888 86.6181 215.132C86.7012 213.405 86.7721 211.686 82.4829 211.644ZM147.873 223.6L148.726 228.958C150.721 229.009 152.541 227.81 152.013 225.306C151.505 222.897 149.482 223.278 147.873 223.6Z" fill="#005FAF"/>
<path d="M227.061 24.9901C162.581 -7.85806 85.5747 -6.9445 24.1382 23.5575C-7.54202 79.3275 -8.55074 157.359 24.1382 226.47C91.8226 260.722 166.682 258.465 227.537 227.903C256.138 169.226 260.861 98.6194 227.061 24.9901ZM118.162 191.52L114.34 191.563C113.393 181.002 110.869 172.126 105.453 165.333C80.6194 134.191 29.8549 157.637 42.899 104.712C49.6814 77.6544 127.045 61.6966 118.162 191.52ZM42.9907 139.247C48.4132 150.284 82.386 152.092 94.1791 160.54C112.886 173.941 110.201 191.568 110.201 191.568H105.789C97.1032 164.946 72.7262 186.025 53.2007 178.855C40.9421 174.495 32.0419 155.595 42.9907 139.247ZM104.887 226.036L106.715 211.545L110.002 211.789L108.54 227.74C107.066 234.767 96.5893 233.827 95.2674 227.131L96.9717 210.571L100.868 211.182L99.1639 225.062C99.3801 229.656 103.988 229.381 104.887 226.036ZM87.3932 229.993L83.6456 229.088C84.085 225.991 87.7583 219.69 80.4983 219.69L78.4774 227.925L74.3422 227.15L78.7352 207.379C89.4729 208.549 90.4124 211.537 90.6252 214.745C90.2013 217.233 89.5387 218.97 87.3949 219.395C89.9037 221.672 87.4243 226.444 87.3932 229.993ZM63.5906 207.848C62.5577 209.218 60.4901 214.006 60.1907 217.821C59.8724 221.864 63.7567 221.013 64.7239 220.541C65.5042 220.162 66.0839 216.914 66.0839 216.914L63.364 216.008L64.2706 213.29L70.3921 215.329L67.4455 225.531L64.9523 224.849L65.179 223.262C62.1269 224.654 56.54 223.61 55.8842 220.089C55.2285 217.26 57.2148 208.684 60.4174 204.676C63.5301 200.78 71.1136 204.588 71.2987 206.943C71.4821 209.289 70.5565 211.93 70.5565 211.93L67.7016 211.391C67.7016 211.391 67.8764 210.544 68.1255 209.208C68.3885 207.793 64.698 206.376 63.5906 207.848ZM119.257 224.451L118.527 233.22L115.483 233.099L116.578 212.276C124.179 212.433 128.536 213.485 128.391 218.852C127.937 226.185 121.999 224.536 119.257 224.451ZM126.833 191.567H121.741C121.29 173.534 124.757 140.551 115.283 116.278C108.104 97.8772 89.9366 89.5998 85.9104 74.7355C79.5363 51.2081 90.3847 25.7514 126.833 23.7911C158.432 27.0352 168.141 51.4295 162.751 74.1421C153.484 96.8512 144.215 93.588 132.676 116.209C123.252 140.458 126.84 172.226 126.833 191.567ZM183.306 224.939L179.775 226.157L178.678 205.213L182.818 204.118L193.047 221.408L190.246 223.235L186.836 218.366L182.939 219.826L183.306 224.939ZM142.108 191.567H138.035C141.392 145.256 199.587 155.317 204.906 139.247C214.104 155.178 210.797 168.612 201.193 175.498C177.326 192.617 154.441 162.829 142.108 191.567ZM163.703 214.956L165.53 224.576C166.667 226.792 167.438 226.382 169.182 226.159C171.205 224.695 170.783 223.269 170.4 221.409L173.932 220.923C174.852 227.893 171.539 228.604 169.061 229.081C163.748 229.462 162.706 228.427 161.268 221.532C160.431 215.631 158.984 209.398 163.947 208.26C172.092 207.016 171.611 210.682 172.349 213.251L168.817 213.862C168.253 211.654 167.442 210.779 165.651 210.942C164.019 211.691 163.35 212.904 163.703 214.956ZM156.275 224.939C156.444 227.972 155.415 229.986 153.474 230.663L145.193 232.367L141.905 212.276C143.604 211.999 151.935 208.947 153.96 214.47C154.958 217.842 153.923 219.051 152.742 220.556C154.982 221.276 155.738 223.02 156.275 224.939ZM135.01 124.114C153.458 72.1731 195.67 81.3519 205.032 104.713C217.858 151.59 176.558 138.735 150.103 157.957C140.104 166.653 134.843 176.63 134.765 191.754H130.232C129.96 161.291 129.467 139.721 135.01 124.114Z" fill="#005FAF"/>
</svg>
