<svg width="743" height="832" viewBox="0 0 743 832" fill="none" xmlns="http://www.w3.org/2000/svg">
<g clip-path="url(#clip0_53_45)">
<mask id="mask0_53_45" style="mask-type:luminance" maskUnits="userSpaceOnUse" x="0" y="0" width="743" height="942">
<path d="M743 0H0V942H743V0Z" fill="white"/>
</mask>
<g mask="url(#mask0_53_45)">
<path d="M743 0H0V942H743V0Z" fill="url(#paint0_linear_53_45)"/>
</g>
<g opacity="0.4">
<path opacity="0.504511" fill-rule="evenodd" clip-rule="evenodd" d="M663.507 652.919C671.801 703.519 470.664 736.524 297.539 713.491C124.416 690.457 44.9953 600.511 127.607 552.585C210.219 504.658 655.214 602.32 663.507 652.919Z" fill="#F2F2F2"/>
<path fill-rule="evenodd" clip-rule="evenodd" d="M418.967 419.094C414.53 417.299 408.616 419.38 411.083 424.124C413.726 429.203 423.497 429.266 429.015 429.165C428.463 429.142 426.684 424.484 426.075 423.78C424.28 421.704 421.694 420.199 418.967 419.094ZM470.083 510.162C471.203 510.942 470.174 510.236 470.083 510.162ZM414.693 442.069C412.097 443.687 411.973 446.545 414.094 448.479C416.619 450.782 421.23 450.698 424.672 450.474C426.229 450.373 434.543 449.829 432.572 448.72C432.724 448.767 433.041 448.879 433.38 449.033C433.562 449.577 433.753 450.119 433.953 450.657C433.903 450.681 433.862 450.706 433.81 450.729C433.867 450.709 433.906 450.687 433.956 450.666C435.956 456.054 438.801 461.184 442.528 465.983C441.133 465.535 439.69 465.196 438.225 465.046C433.887 464.598 424.763 467.348 429.615 472.058C434.267 476.573 441.509 471.729 446.789 471.061C451.91 476.89 457.556 482.476 463.473 487.876C463.11 487.968 462.792 488.161 462.609 488.462C460.236 487.48 457.762 486.075 455.565 485.695C452.395 485.146 445.895 484.814 443.499 487.128C440.552 489.974 443.711 492.285 447.192 492.832C452.241 493.623 458.85 491.611 463.708 490.251C464.263 490.331 464.871 490.199 465.233 489.837C465.34 489.808 465.447 489.78 465.552 489.752C471.543 495.126 477.765 500.322 483.948 505.404C483.882 505.401 483.817 505.398 483.748 505.395C482.135 504.533 480.405 503.824 478.53 503.454C474.191 502.591 469.087 502.587 465.566 505.147C462.059 507.696 460.818 512.154 464.446 515.017C471.707 520.747 482.407 507.682 486.07 507.137C492.353 512.247 498.998 517.022 505.747 521.7C504.981 521.51 504.195 521.371 503.382 521.308C496.764 520.791 481.231 527.408 489.352 533.919C496.43 539.592 504.622 528.673 510.325 524.853C516.685 529.214 523.08 533.545 529.294 538.044C525.905 537.31 522.629 537.202 518.995 538.097C515.235 539.025 509.169 541.341 511.545 545.481C513.963 549.692 521.248 547.776 525.043 546.439C527.113 545.71 531.262 543.249 534.905 542.213C544.822 549.849 553.412 558.26 559.915 568.168C563.975 574.354 567.055 580.964 569.225 587.758C570.608 592.094 573.335 599.376 572.79 605.019C575.392 593.723 570.687 580.156 565.618 570.059C560.957 560.774 553.981 552.623 545.811 545.287C547.861 540.257 565.119 533.003 554.802 528.33C549.323 525.859 543.712 529.959 542.515 534.301C541.692 537.285 542.945 541.034 544.275 543.93C541.705 541.693 539.034 539.529 536.28 537.436C532.475 534.543 528.579 531.735 524.646 528.963C531.127 523.996 537.262 509.798 528.571 507.476C515.738 504.057 521.917 523.424 522.812 527.053C523.066 527.066 523.264 527.003 523.41 526.868C523.338 527.201 523.255 527.556 523.153 527.915C515.625 522.635 507.985 517.459 500.596 512.053C501.262 511.652 502.32 510.118 503.152 509.303C505.029 507.463 506.825 505.541 508.137 503.389C510.211 499.988 512.21 494.562 506.714 492.562C500.738 490.382 497.897 496.518 497.855 500.179C497.828 502.71 498.673 505.115 499.113 507.596C499.251 508.37 498.721 511.859 500.013 510.358C499.952 510.912 499.944 511.312 499.973 511.596C498.647 510.62 497.331 509.635 496.023 508.641C496.084 508.516 496.129 508.379 496.139 508.221C496.209 507.13 494.862 506.709 493.919 507.029C492.193 505.692 490.484 504.337 488.805 502.955C485.248 500.029 481.639 497.019 478.055 493.945C478.833 493.4 478.524 492.646 479.251 492.067C479.976 491.49 481.407 491.171 482.26 490.635C484.408 489.286 486.188 487.32 487.476 485.386C489.602 482.19 492.35 475.485 486.138 473.962C479.737 472.389 476.488 478.843 476.076 482.878C475.996 483.66 476.714 490.704 477.263 493.261C470.631 487.548 464.109 481.621 458.199 475.59C459.991 475.576 465.072 472.582 466.098 471.766C468.604 469.772 472.587 465.369 468.194 463.039C464.288 460.972 459.474 463.966 457.803 466.875C457.529 467.354 456.561 471.813 456.485 473.813C454.039 471.256 451.706 468.683 449.536 466.102C448.088 464.387 446.736 462.626 445.469 460.827C445.775 460.687 446.061 460.441 446.332 460.135C452.846 459.234 461.152 450.943 453.499 448.059C449.857 446.687 445.905 449.519 444.121 451.836C443.755 452.311 443.163 454.695 442.682 456.575C439.04 450.617 436.258 444.309 434.14 437.842C434.706 437.727 435.187 437.374 435.251 436.766C438.413 435.296 440.911 434.071 443.119 431.243C444.49 429.486 446.961 425.473 442.93 424.498C437.685 423.23 434.391 429.764 433.962 432.981C433.912 433.355 433.913 434.441 433.931 435.437C433.748 435.417 433.565 435.419 433.384 435.445C432.179 431.441 431.218 427.384 430.453 423.321C433.316 422.57 433.812 410.307 431.905 408.562C427.645 404.652 424.639 410.299 424.867 413.284C425.135 416.804 427.091 420.005 429.419 422.847C429.668 423.147 429.597 423.132 429.662 422.713C429.698 422.921 429.783 423.074 429.909 423.184C429.788 425.037 429.555 426.933 429.667 428.572C429.989 433.267 430.66 437.989 431.633 442.623C431.87 443.749 432.142 444.868 432.445 445.975C430.144 444.377 427.042 442.956 425.828 442.512C422.677 441.36 417.822 440.117 414.693 442.069ZM573.16 605.035C573.013 606.672 572.651 608.171 571.974 609.407C572.482 608 572.871 606.537 573.16 605.035Z" fill="#F2F2F2"/>
<path opacity="0.2" fill-rule="evenodd" clip-rule="evenodd" d="M254.723 320.68C257.891 319.399 262.116 320.885 260.354 324.273C258.465 327.901 251.486 327.946 247.545 327.874C247.939 327.857 249.21 324.53 249.645 324.028C250.927 322.544 252.774 321.47 254.723 320.68ZM218.234 386.788C218.143 386.861 217.115 387.568 218.234 386.788ZM258.405 337.525C260.3 338.695 260.39 340.761 258.84 342.161C256.995 343.827 253.628 343.768 251.115 343.606C249.978 343.533 243.908 343.143 245.348 342.34C245.237 342.374 245.006 342.456 244.758 342.568C244.625 342.961 244.485 343.352 244.339 343.742C244.374 343.759 244.405 343.777 244.444 343.794C244.402 343.779 244.373 343.763 244.337 343.748C242.875 347.645 240.795 351.355 238.071 354.826C239.089 354.502 240.144 354.257 241.214 354.147C244.381 353.822 251.041 355.808 247.496 359.215C244.098 362.481 238.813 358.981 234.958 358.499C231.216 362.716 227.091 366.757 222.769 370.663C223.033 370.73 223.265 370.87 223.399 371.087C225.132 370.376 226.939 369.359 228.543 369.083C230.857 368.686 235.604 368.444 237.353 370.117C239.503 372.173 237.196 373.846 234.654 374.242C230.966 374.815 226.142 373.363 222.596 372.381C222.19 372.439 221.748 372.344 221.483 372.082C221.404 372.061 221.326 372.041 221.25 372.021C216.873 375.908 212.328 379.667 207.811 383.344C207.858 383.342 207.906 383.339 207.957 383.338C209.135 382.713 210.398 382.201 211.768 381.932C214.936 381.307 218.663 381.302 221.232 383.153C223.791 384.995 224.696 388.219 222.046 390.29C216.741 394.435 208.935 384.991 206.26 384.597C201.67 388.295 196.817 391.75 191.887 395.135C192.447 394.997 193.021 394.895 193.614 394.85C198.447 394.474 209.785 399.255 203.851 403.964C198.682 408.07 192.706 400.176 188.543 397.416C183.898 400.571 179.226 403.704 174.687 406.959C177.162 406.428 179.554 406.348 182.207 406.995C184.951 407.665 189.38 409.338 187.642 412.332C185.876 415.377 180.558 413.995 177.787 413.028C176.277 412.502 173.248 410.724 170.588 409.976C163.344 415.501 157.068 421.585 152.316 428.752C149.349 433.226 147.096 438.007 145.51 442.919C144.497 446.055 142.503 451.322 142.899 455.403C141.004 447.235 144.446 437.423 148.151 430.121C151.559 423.405 156.656 417.509 162.625 412.202C161.129 408.565 148.532 403.325 156.067 399.943C160.069 398.155 164.163 401.117 165.035 404.257C165.635 406.414 164.718 409.126 163.746 411.22C165.624 409.602 167.575 408.036 169.587 406.522C172.366 404.43 175.212 402.397 178.085 400.391C173.355 396.802 168.883 386.537 175.229 384.856C184.601 382.379 180.08 396.385 179.425 399.01C179.239 399.019 179.094 398.974 178.988 398.877C179.041 399.118 179.101 399.374 179.175 399.633C184.675 395.814 190.255 392.068 195.652 388.157C195.166 387.867 194.395 386.759 193.787 386.169C192.418 384.839 191.108 383.45 190.151 381.894C188.638 379.435 187.181 375.513 191.194 374.065C195.559 372.487 197.63 376.923 197.659 379.57C197.678 381.4 197.06 383.139 196.737 384.934C196.637 385.493 197.022 388.016 196.079 386.931C196.123 387.331 196.129 387.621 196.107 387.827C197.076 387.121 198.037 386.407 198.993 385.689C198.949 385.598 198.916 385.5 198.909 385.384C198.858 384.596 199.841 384.291 200.53 384.522C201.791 383.555 203.039 382.574 204.265 381.575C206.864 379.458 209.5 377.28 212.119 375.056C211.551 374.662 211.777 374.117 211.246 373.699C210.717 373.282 209.673 373.051 209.05 372.664C207.483 371.689 206.183 370.268 205.244 368.87C203.693 366.56 201.69 361.712 206.225 360.609C210.9 359.47 213.27 364.136 213.569 367.053C213.626 367.619 213.1 372.712 212.697 374.562C217.542 370.428 222.307 366.14 226.624 361.778C225.316 361.768 221.609 359.605 220.859 359.015C219.03 357.574 216.124 354.392 219.332 352.705C222.186 351.21 225.7 353.373 226.917 355.476C227.118 355.822 227.823 359.046 227.877 360.492C229.664 358.643 231.368 356.782 232.955 354.915C234.012 353.674 235 352.4 235.925 351.099C235.703 350.997 235.494 350.82 235.296 350.599C230.54 349.949 224.48 343.957 230.068 341.869C232.728 340.876 235.612 342.922 236.914 344.598C237.181 344.94 237.612 346.664 237.963 348.024C240.624 343.714 242.659 339.152 244.209 334.475C243.794 334.392 243.443 334.137 243.398 333.697C241.089 332.635 239.266 331.75 237.656 329.706C236.655 328.436 234.853 325.535 237.796 324.829C241.627 323.91 244.028 328.634 244.34 330.961C244.377 331.231 244.375 332.016 244.362 332.736C244.495 332.721 244.629 332.723 244.761 332.742C245.642 329.846 246.346 326.912 246.906 323.974C244.817 323.431 244.461 314.565 245.853 313.302C248.965 310.474 251.158 314.556 250.991 316.715C250.792 319.26 249.364 321.575 247.662 323.63C247.479 323.848 247.532 323.837 247.485 323.534C247.459 323.684 247.396 323.795 247.304 323.875C247.391 325.214 247.561 326.586 247.478 327.771C247.241 331.166 246.749 334.58 246.036 337.931C245.863 338.746 245.664 339.555 245.442 340.356C247.122 339.199 249.388 338.171 250.275 337.85C252.576 337.016 256.121 336.115 258.405 337.525ZM142.522 455.08C142.633 456.17 142.963 457.166 143.613 457.982C143.136 457.049 142.778 456.078 142.522 455.08Z" fill="#C1DEE2"/>
<g opacity="0.7">
<path fill-rule="evenodd" clip-rule="evenodd" d="M505.262 529.971C517.584 529.45 532.821 535.317 534.136 546.24C535.092 554.177 534.795 562.091 536.273 570.017C537.455 576.351 539.954 582.431 543.363 588.2C546.64 593.749 553.439 598.471 555.208 604.399C556.334 608.175 555.703 613.488 554.15 617.181C552.26 621.673 553.264 621.318 557.03 625.087C564.41 632.473 571.056 640.046 575.755 648.866C582.525 661.571 586.962 676.422 584.45 690.33C584.131 692.096 583.751 698.434 580.77 698.877C577.44 699.372 578.997 695.748 579.175 694.576C580.308 687.106 581.314 680.575 579.948 672.988C574.674 643.713 548.924 624.424 532.158 599.578C531.236 598.296 529.29 595.246 527.938 593.233C525.802 590.055 523.655 584.008 520.764 581.651C515.317 577.212 520.324 586.137 521.385 587.841C522.727 589.996 524.203 592.286 525.577 594.175C531.868 602.928 538.89 612.483 545.386 621.506C517.288 626.728 497.5 599.177 489.96 581.063C483.746 566.14 476.314 531.248 505.262 529.971Z" fill="#69A1AC"/>
<path fill-rule="evenodd" clip-rule="evenodd" d="M670.406 502.26C649.809 503.593 636.586 514.678 630.43 530.183C627.113 538.539 626.732 547.123 624.888 555.709C622.115 568.629 616.148 578.419 604.486 587.624C600.874 590.474 598.212 593.401 596.32 596.532C592.563 599.658 589.293 603.196 586.892 607.521C583.823 613.045 582.955 619.673 586.498 625.18C587.45 626.66 589.826 629.632 592.289 630.983C583.068 647 577.998 664.543 578.569 682.063C578.916 692.639 579.548 703.219 580.286 713.783C580.486 716.619 581.618 721.303 583.319 716.546C584.876 712.195 582.923 705.365 582.743 700.819C581.864 678.677 581.113 658.544 592.288 637.857C593.46 635.688 594.703 633.538 595.996 631.404C596.073 631.368 596.143 631.324 596.214 631.282C596.264 631.314 596.309 631.347 596.357 631.378C596.44 631.257 596.554 631.113 596.686 630.954C597.057 630.641 597.38 630.246 597.689 629.807C598.68 628.686 599.802 627.37 599.808 626.649C599.808 626.643 599.805 626.635 599.805 626.629C606.723 617.418 614.647 608.715 622.741 600.182C622.679 600.244 631.52 590.426 630.153 595.856C629.494 598.472 622.991 603.454 620.366 606.225C614.556 612.391 607.734 620.203 602.065 627.756C601.303 628.114 600.225 629.87 599.445 631.178C599.015 631.84 598.613 632.508 598.219 633.089C618.306 638.502 633.932 627.599 644.586 614.917C644.599 614.903 644.611 614.886 644.622 614.872C647.865 611.368 651.186 607.888 655.335 605.118C662.259 600.496 669.673 599.681 677.834 597.406C700.093 591.202 709.558 567.674 712.563 550.215C715.955 530.519 699.367 500.317 670.406 502.26Z" fill="#89C5CC"/>
<path fill-rule="evenodd" clip-rule="evenodd" d="M629.719 447.103C608.579 465.049 598.366 489.939 590.279 513.339C581.246 539.473 575.28 566.012 575.051 593.183C574.902 611.036 574.306 629 575.583 646.831C576.036 653.164 576.81 659.508 578.042 665.773C578.142 666.288 580.896 680.276 583.53 677.016C585.029 675.162 580.708 662.506 580.382 660.398C578.545 648.524 578.118 636.562 578.208 624.603C578.355 604.911 577.643 585.322 580.09 565.703C580.455 562.774 580.743 559.697 581.597 556.831C582.503 553.785 581.349 555.115 584.299 553.909C587.166 552.737 590.709 552.904 593.683 551.433C605.481 545.598 611.516 530.61 616.213 520.776C621.586 509.53 624.852 497.538 627.46 485.703C629.374 477.007 630.744 468.365 631.518 459.557C631.762 456.782 631.777 453.879 632.446 451.15C632.626 450.413 633.53 449.111 633.497 448.459C633.428 447.08 632.407 446.268 632.323 445.109C631.438 445.758 630.569 446.423 629.719 447.103Z" fill="#89C5CC"/>
<path fill-rule="evenodd" clip-rule="evenodd" d="M514.448 686.195C514.448 715.872 543.945 739.931 580.332 739.931C616.718 739.931 646.215 715.872 646.215 686.195" fill="#89C5CC"/>
<path fill-rule="evenodd" clip-rule="evenodd" d="M585.619 686.366H582.139C582.38 682.804 582.699 679.248 583.429 675.725C586.222 662.253 594.954 642.465 614.105 640.278C614.812 640.196 617.411 640.183 620.559 640.333C622.052 639.654 623.722 639.242 625.484 639.147C641.79 638.167 659.999 648.896 667.864 660.062C674.204 669.063 673.136 680.884 669.22 690.448C666.598 696.852 660.874 705.98 651.329 706.07C639.387 706.181 638.811 694.142 638.581 687.106C638.273 677.749 636.824 669.599 627.785 663.221C625.678 661.735 623.375 660.428 621.248 658.963C617.916 656.67 614.233 654.322 613.804 650.528C613.211 645.295 616.833 644.353 622.364 645.325C623.307 645.491 632.804 648.966 631.398 646.219C630.969 645.38 629.401 644.715 627.422 644.217C622.3 643.762 616.193 643.235 614.437 643.55C595.488 646.941 588.11 668.349 586.151 681.95C585.94 683.418 585.769 684.891 585.619 686.366Z" fill="#69A1AC"/>
</g>
<g opacity="0.5">
<path fill-rule="evenodd" clip-rule="evenodd" d="M225.847 431.83C229.639 427.42 236.678 416.218 242.015 414.642C245.454 413.627 244.451 424.127 244.494 426.13C244.66 433.876 243.735 441.574 242.593 449.255C240.535 463.109 233.808 475.446 224.582 487.238C219.835 493.305 214.267 499.445 206.554 503.23C203.004 504.974 198.732 505.266 195.226 506.768C191.142 508.516 193.366 507.103 191.526 510.574C188.97 515.392 188.153 521.608 186.97 526.749C181.541 550.35 168.398 675.112 170.677 699.118C170.879 701.246 167.241 701.755 167.06 699.158C166.095 685.384 174.447 590.002 178.661 558.81C182.874 527.616 187.139 500.06 191.414 489.268C196.602 476.176 205.971 460.431 213.769 448.221C217.391 442.549 221.34 437.072 225.847 431.83Z" fill="#69A1AC"/>
<path fill-rule="evenodd" clip-rule="evenodd" d="M254 584.817C263.869 578.908 274.551 590.061 265.621 595.971C260.684 599.238 255.523 598.076 252.617 595.354C250.731 597.228 248.965 599.189 247.269 600.846C242.1 605.892 237.216 611.06 232.547 616.347C222.849 627.332 214.537 638.937 205.847 650.331C197.272 661.575 188.764 672.878 180.992 684.406C174.406 694.175 165.63 705.666 163.375 716.375C166.796 693.663 179.775 671.834 195.232 651.812C210.563 631.954 228.156 610.268 251.894 594.597C249.478 591.699 249.411 587.563 254 584.817Z" fill="#C1DEE2"/>
<path fill-rule="evenodd" clip-rule="evenodd" d="M66.7267 529.427C72.2493 530.308 81.2733 540.497 85.8257 544.38C91.2358 548.993 96.1441 553.91 100.771 559.063C110.731 570.153 119.639 581.944 127.213 594.24C139.562 614.284 149.455 634.862 156.635 656.689C161.029 670.05 163.875 683.899 165.562 697.651C165.88 700.245 169.214 720.24 164.41 720.779C160.089 721.265 161.424 705.597 161.215 703.465C158.859 679.42 151.801 656.024 141.983 633.361C139.844 628.424 137.857 622.377 134.437 617.934C131.974 614.734 134.42 615.85 130.091 614.639C126.375 613.599 122.141 613.853 118.335 612.579C110.067 609.813 103.447 604.445 97.6445 599.045C86.3676 588.551 77.4312 577.198 72.773 563.751C70.1889 556.295 67.8144 548.796 66.4966 541.11C66.1557 539.123 63.1696 528.859 66.7267 529.427Z" fill="#69A1AC"/>
<path fill-rule="evenodd" clip-rule="evenodd" d="M88.5215 359.893C109.324 389.318 126.419 421.641 137.457 454.379C144.145 474.214 148.822 494.569 153.469 514.776C160.664 546.065 167.47 577.351 169.405 609.195C171.353 641.224 175.205 678.165 162.346 709.014C168.769 677.694 162.654 644.357 161.571 612.842C161.054 597.798 159.554 582.9 157.587 567.944C155.679 553.435 152.561 538.996 149.657 524.602C148.242 517.591 146.757 510.591 145.244 503.595C144.793 501.508 144.602 495.315 142.979 493.888C141.345 492.453 133.009 491.868 130.391 490.815C125.121 488.693 120.164 485.68 115.777 482.497C107.366 476.395 100.049 468.42 94.2746 460.56C80.9128 442.371 75.5708 420.175 75.8408 399.111C75.8926 395.021 83.9567 350.982 80.718 350.375C80.9131 350.189 81.0975 349.997 81.2714 349.797C83.7234 353.145 86.1294 356.516 88.5215 359.893Z" fill="#89C5CC"/>
<path fill-rule="evenodd" clip-rule="evenodd" d="M313.052 466.018C313.373 465.64 315.462 463.014 314.41 463.181C316.552 462.84 311.464 466.078 316.801 464.091C314.267 466.043 315.729 468.579 315.763 471.205C315.819 475.471 314.944 479.701 313.958 483.875C312.402 490.472 310.084 496.886 306.719 503.023C299.383 516.395 286.929 529.268 272.143 537.628C264.844 541.756 257.69 543.162 249.365 545.062C244.107 546.262 243.69 548.481 240.898 552.643C235.087 561.312 229.38 569.948 224.255 578.909C218.136 589.609 212.195 600.32 206.592 611.209C187.715 647.886 172.35 685.884 164.281 725.208C164.084 702.034 170.657 678.168 178.947 656.079C184.987 639.986 192.849 624.473 201.234 609.118C203.267 605.397 206.346 600.612 207.209 596.505C207.813 593.627 205.966 590.859 205.12 587.827C201.823 576.023 202.059 562.797 204.955 550.928C208.147 537.841 217.38 531.768 232.999 529.914C238.71 529.235 245.971 529.484 251.209 527.497C256.915 525.334 259.269 518.224 262.514 513.66C271.229 501.399 281.585 489.64 293.476 479.31C296.768 476.449 300.309 473.81 304.065 471.364C306.434 469.82 311.438 467.919 313.052 466.018Z" fill="#89C5CC"/>
<path fill-rule="evenodd" clip-rule="evenodd" d="M137.914 700.18H193.344C195.836 700.18 197.856 701.828 197.856 703.861C197.856 704.04 197.84 704.22 197.808 704.398L193.524 728.092C192.218 735.315 184.619 740.666 175.666 740.666H155.591C146.639 740.666 139.04 735.315 137.734 728.092L133.45 704.398C133.086 702.386 134.79 700.516 137.256 700.22C137.474 700.194 137.694 700.18 137.914 700.18Z" fill="#C1DEE2"/>
</g>
<path fill-rule="evenodd" clip-rule="evenodd" d="M87.9434 712.295C87.9434 727.964 89.4595 740.667 109.809 740.667C130.159 740.667 131.675 727.964 131.675 712.295" fill="#F2F2F2"/>
<path fill-rule="evenodd" clip-rule="evenodd" d="M115.863 702.517C115.117 703.569 114.452 704.642 113.864 705.731C113.843 703.488 113.995 701.229 114.411 698.938C115.12 695.016 116.205 691.112 117.223 687.216C117.955 684.416 117.909 679.387 120.688 677.156C121.449 676.673 121.633 677.619 121.633 678.03C121.642 678.116 121.631 676.354 120.891 676.661C116.495 678.513 115.071 684.335 113.664 687.251C111.61 691.505 109.863 695.855 109.144 700.282C108.962 701.4 108.863 702.518 108.84 703.634C108.691 703.336 108.551 703.035 108.395 702.738C105.858 697.884 102.434 693.148 98.1641 688.781C97.1131 687.707 83.8965 677.103 82.8619 678.726C82.964 678.962 83.1777 679.157 83.5035 679.313C83.5227 679.33 83.5233 679.32 83.5121 679.294C84.2883 680.317 86.4953 681.897 87.1826 682.793C88.9127 685.048 90.2573 687.441 91.6237 689.788C94.5105 694.749 97.1885 699.76 99.7847 704.781C100.389 705.951 101.019 707.114 101.662 708.273C95.0359 700.478 86.1965 693.402 74.0283 689.35C78.1843 691.075 80.9091 694.319 83.7157 696.803C87.1008 699.8 90.6662 702.715 94.0576 705.708C98.0578 709.239 102.765 712.958 106.612 716.865C110.339 723.247 113.961 729.636 116.197 736.344C115.28 734.026 116.125 730.823 115.968 728.39C115.844 726.454 115.566 724.534 115.186 722.617C115.656 723.482 116.061 724.347 116.244 725.152C116.077 723.802 115.884 722.461 115.677 721.126C116.209 719.877 116.731 718.711 117.084 717.752C118.894 712.825 121.048 707.985 123.982 703.267C126.696 698.902 129.81 694.593 133.203 690.416C134.786 688.468 136.391 686.528 137.985 684.584C139.029 683.311 140.022 681.274 141.475 680.055C132.083 687.059 121.822 694.113 115.863 702.517Z" fill="#F2F2F2"/>
<path fill-rule="evenodd" clip-rule="evenodd" d="M685.595 382.793C682.903 375.468 676.581 369.735 670.019 364.482C657.244 354.255 650.373 347.932 645.82 332.973C643.143 324.175 640.417 314.852 631.924 308.468C625.741 303.82 615.098 299.915 606.828 303.243C594.105 309.437 590.689 322.147 591.972 333.528C593.562 347.635 601.641 356.332 617.161 361.528C625.906 364.454 631.72 368.315 636.466 375.043C640.263 380.423 642.478 387.16 647.249 392.036C654.383 399.328 663.31 402.568 674.314 401.357C664.008 385.891 651.965 370.279 637.441 357.257C636.082 355.947 628.062 350.936 629.68 348.705C631.462 346.248 639.694 355.477 639.635 355.421C643.857 359.373 647.762 363.572 651.598 367.812C651.588 367.816 651.577 367.818 651.566 367.823C655.514 372.173 659.432 376.588 663.275 381.058C664.829 382.948 666.342 384.863 667.789 386.826C669.915 389.707 673.287 397.882 676.765 399.653C677.509 400.031 678.196 400.243 678.84 400.331C681.212 403.499 683.521 406.693 685.716 409.924C691.45 418.365 696.371 427.276 698.63 436.805C699.289 439.587 698.823 449.99 701.15 451.998C705.406 455.67 704.16 448.598 703.905 446.463C701.791 428.787 694.011 413.728 682.714 398.867C686.184 395.17 686.685 385.761 685.595 382.793Z" fill="#F2F2F2"/>
<path fill-rule="evenodd" clip-rule="evenodd" d="M539.833 391.334C544.321 387.023 555.105 386.291 561.701 386.579C569.864 386.936 578.247 388.558 586.013 390.517C598.804 393.744 611.234 399.634 622.5 405.335C623.857 406.022 640.584 414.226 639.103 415.666C637.636 417.093 621.216 407.347 617.557 405.668C609.748 402.083 602.587 397.842 593.979 395.475C585.066 393.023 575.64 392.052 566.268 392.119C565.065 392.128 561.142 391.443 561.057 392.895C560.974 394.315 567.466 393.574 568.611 393.583C573.339 393.618 578.096 393.981 582.757 394.649C591.49 395.901 599.701 398.424 607.181 402.293C605.094 406.25 600.091 408.075 594.842 407.085C590.306 406.229 585.884 404.117 581.442 403.507C578.383 403.086 575.321 403.336 572.354 404.039C564.529 405.893 560.017 409.693 551.413 407.05C544.669 404.978 533.39 397.534 539.833 391.334Z" fill="#F2F2F2"/>
<path fill-rule="evenodd" clip-rule="evenodd" d="M544.912 350.532H547.034C546.886 348.335 546.692 346.142 546.237 343.97C544.531 335.827 539.195 323.867 527.495 322.545C527.063 322.496 525.475 322.488 523.552 322.579C522.64 322.168 521.619 321.919 520.543 321.862C510.581 321.27 499.456 327.754 494.651 334.502C490.777 339.943 491.43 347.088 493.822 352.868C495.425 356.738 498.922 362.256 504.753 362.31C512.048 362.377 512.401 355.101 512.541 350.848C512.729 345.193 513.615 340.267 519.137 336.412C520.425 335.514 521.832 334.724 523.131 333.839C525.167 332.453 527.417 331.034 527.679 328.741C528.041 325.578 525.828 325.008 522.449 325.596C521.873 325.696 516.071 327.797 516.93 326.136C517.192 325.629 518.15 325.227 519.359 324.926C522.488 324.651 526.219 324.333 527.292 324.523C538.869 326.572 543.376 339.511 544.573 347.732C544.709 348.663 544.817 349.597 544.912 350.532Z" fill="#F2F2F2"/>
</g>
<path d="M248.664 159.926C248.664 174.623 177.813 190.845 172.448 190.845C169.44 190.845 166.028 190.152 166.028 187.379C166.028 186.453 167.097 185.113 168.973 183.499L168.971 183.5L163.998 174.663C163.324 173.467 163.858 171.951 165.133 171.441L165.987 171.099C167.537 170.479 169.28 170.571 170.755 171.352L179.784 176.132C183.299 174.046 187.287 171.863 191.49 169.714L173.895 158.299C172.503 157.396 172.518 155.353 173.923 154.47L175.362 153.566C177.758 152.061 180.67 151.617 183.405 152.338L212.676 160.059C221.802 156.436 230.054 153.964 234.938 153.964C236.242 153.964 237.548 153.998 238.809 154.089L229.97 158.079L229.758 161.052L243.403 154.78C246.674 155.56 248.664 157.016 248.664 159.926ZM213.055 185.296L223.973 197.699C224.639 198.455 225.722 198.683 226.635 198.258L228.098 197.578C230.764 196.339 232.335 193.529 231.993 190.608L230.626 178.921C230.542 178.198 229.808 177.741 229.121 177.982L213.53 183.475C212.771 183.742 212.523 184.692 213.055 185.296Z" fill="#8D4DCE"/>
<path d="M162.769 206.935C162.9 205.079 162.407 203.641 161.29 202.622C160.189 201.603 158.447 201.094 156.064 201.094C154.487 201.094 153.139 201.299 152.022 201.71C150.905 202.104 150.025 202.663 149.385 203.386C148.744 204.093 148.341 204.914 148.177 205.851C148.029 206.59 148.07 207.248 148.3 207.823C148.53 208.398 148.933 208.907 149.508 209.351C150.099 209.795 150.831 210.181 151.702 210.51C152.589 210.838 153.583 211.126 154.684 211.372L158.825 212.358C161.224 212.9 163.303 213.623 165.061 214.527C166.836 215.415 168.274 216.491 169.375 217.756C170.476 219.005 171.232 220.443 171.642 222.07C172.053 223.697 172.086 225.521 171.741 227.542C171.215 230.73 169.958 233.466 167.97 235.75C165.998 238.034 163.418 239.784 160.23 241C157.059 242.216 153.369 242.824 149.163 242.824C144.956 242.824 141.382 242.191 138.44 240.926C135.516 239.644 133.396 237.714 132.081 235.134C130.766 232.554 130.413 229.3 131.021 225.373H142.68C142.499 227 142.705 228.355 143.296 229.44C143.904 230.524 144.841 231.346 146.106 231.905C147.372 232.463 148.9 232.743 150.691 232.743C152.334 232.743 153.772 232.521 155.004 232.077C156.253 231.634 157.248 231.017 157.987 230.229C158.743 229.44 159.203 228.536 159.367 227.517C159.532 226.581 159.376 225.767 158.899 225.077C158.439 224.387 157.65 223.787 156.533 223.278C155.432 222.768 153.986 222.308 152.195 221.897L147.142 220.665C142.968 219.646 139.804 218.019 137.652 215.784C135.516 213.55 134.76 210.518 135.384 206.689C135.91 203.55 137.208 200.806 139.279 198.456C141.365 196.106 144.003 194.282 147.191 192.984C150.395 191.67 153.92 191.012 157.765 191.012C161.676 191.012 164.963 191.678 167.625 193.009C170.303 194.323 172.234 196.18 173.417 198.579C174.617 200.962 174.962 203.748 174.452 206.935H162.769ZM187.985 232.25L190.425 217.879H192.076L205.042 204.323H218.697L199.668 223.746H196.488L187.985 232.25ZM175.488 242.183L183.868 191.702H195.922L187.541 242.183H175.488ZM199.003 242.183L191.707 226.457L201.098 217.904L212.929 242.183H199.003ZM222.567 256.381C221.121 256.381 219.773 256.266 218.524 256.036C217.292 255.822 216.24 255.535 215.369 255.173L219.51 246.423C220.611 246.817 221.622 247.039 222.542 247.088C223.479 247.154 224.317 246.998 225.056 246.62C225.812 246.258 226.47 245.609 227.028 244.673L227.719 243.514L220.792 204.323H232.969L235.434 231.362H235.828L247.413 204.323H260.551L239.427 245.807C238.359 247.877 237.069 249.709 235.557 251.303C234.045 252.897 232.221 254.138 230.085 255.025C227.965 255.929 225.459 256.381 222.567 256.381ZM258.862 242.183L267.243 191.702H301.702L300.026 201.611H277.768L276.092 211.964H296.156L294.48 221.897H274.416L271.063 242.183H258.862ZM319.899 191.702L311.518 242.183H299.465L307.846 191.702H319.899ZM324.243 256.381C322.797 256.381 321.45 256.266 320.201 256.036C318.968 255.822 317.917 255.535 317.046 255.173L321.187 246.423C322.288 246.817 323.298 247.039 324.219 247.088C325.155 247.154 325.993 246.998 326.733 246.62C327.489 246.258 328.146 245.609 328.705 244.673L329.395 243.514L322.469 204.323H334.645L337.11 231.362H337.504L349.089 204.323H362.227L341.103 245.807C340.035 247.877 338.745 249.709 337.233 251.303C335.721 252.897 333.897 254.138 331.761 255.025C329.641 255.929 327.135 256.381 324.243 256.381Z" fill="#8D4DCE"/>
<path d="M171.197 273.171L172.873 263.074H179.765L179.429 265.056H174.978L174.642 267.127H178.655L178.32 269.113H174.307L173.637 273.171H171.197ZM179.168 273.171L180.43 265.598H182.772L182.54 266.979H182.619C182.839 266.479 183.127 266.108 183.482 265.865C183.836 265.618 184.221 265.495 184.635 265.495C184.747 265.495 184.859 265.503 184.97 265.52C185.085 265.533 185.194 265.552 185.296 265.579L184.941 267.679C184.829 267.636 184.683 267.605 184.502 267.585C184.321 267.562 184.157 267.551 184.009 267.551C183.723 267.551 183.457 267.615 183.21 267.743C182.967 267.868 182.76 268.044 182.589 268.27C182.422 268.494 182.312 268.757 182.259 269.059L181.579 273.171H179.168ZM188.148 273.313C187.349 273.313 186.69 273.149 186.171 272.821C185.655 272.492 185.292 272.033 185.081 271.445C184.871 270.857 184.83 270.173 184.958 269.394C185.086 268.619 185.351 267.938 185.752 267.353C186.153 266.768 186.665 266.313 187.29 265.988C187.914 265.663 188.622 265.5 189.415 265.5C190.21 265.5 190.866 265.664 191.381 265.993C191.901 266.321 192.266 266.78 192.476 267.368C192.69 267.956 192.732 268.642 192.604 269.424C192.476 270.2 192.21 270.88 191.805 271.465C191.401 272.047 190.889 272.5 190.267 272.825C189.646 273.151 188.94 273.313 188.148 273.313ZM188.419 271.494C188.714 271.494 188.979 271.406 189.212 271.228C189.449 271.051 189.648 270.803 189.809 270.484C189.97 270.165 190.085 269.795 190.154 269.375C190.223 268.961 190.23 268.597 190.174 268.285C190.121 267.97 190.009 267.725 189.838 267.551C189.668 267.373 189.436 267.284 189.143 267.284C188.848 267.284 188.581 267.375 188.345 267.556C188.108 267.733 187.909 267.981 187.748 268.3C187.591 268.615 187.477 268.985 187.408 269.409C187.339 269.823 187.331 270.186 187.383 270.499C187.436 270.811 187.549 271.056 187.724 271.233C187.898 271.407 188.129 271.494 188.419 271.494ZM193.228 273.171L194.49 265.598H196.782L196.555 266.989H196.639C196.869 266.528 197.195 266.165 197.615 265.899C198.036 265.633 198.506 265.5 199.025 265.5C199.548 265.5 199.973 265.635 200.302 265.904C200.634 266.174 200.813 266.535 200.839 266.989H200.918C201.135 266.538 201.47 266.178 201.924 265.909C202.381 265.636 202.89 265.5 203.452 265.5C204.162 265.5 204.703 265.73 205.074 266.19C205.449 266.647 205.569 267.275 205.434 268.073L204.586 273.171H202.18L202.949 268.625C203.002 268.247 202.946 267.96 202.782 267.763C202.621 267.562 202.386 267.462 202.077 267.462C201.745 267.462 201.467 267.569 201.243 267.782C201.023 267.996 200.887 268.285 200.834 268.65L200.07 273.171H197.748L198.522 268.601C198.572 268.249 198.517 267.971 198.36 267.768C198.205 267.564 197.97 267.462 197.655 267.462C197.448 267.462 197.255 267.513 197.078 267.615C196.9 267.713 196.751 267.855 196.629 268.039C196.511 268.223 196.434 268.44 196.398 268.689L195.638 273.171H193.228ZM214.583 265.598L214.283 267.373H209.506L209.806 265.598H214.583ZM211.103 263.784H213.514L212.35 270.789C212.327 270.937 212.331 271.057 212.36 271.149C212.393 271.238 212.452 271.302 212.538 271.342C212.626 271.378 212.735 271.396 212.863 271.396C212.952 271.396 213.05 271.386 213.159 271.366C213.267 271.347 213.349 271.332 213.405 271.322L213.484 273.062C213.356 273.098 213.183 273.139 212.966 273.185C212.753 273.235 212.503 273.266 212.217 273.279C211.639 273.302 211.161 273.235 210.783 273.077C210.408 272.916 210.143 272.666 209.989 272.328C209.838 271.989 209.808 271.565 209.9 271.056L211.103 263.784ZM217.859 268.852L217.14 273.171H214.729L216.405 263.074H218.737L218.096 266.989H218.18C218.423 266.522 218.761 266.157 219.195 265.894C219.629 265.631 220.132 265.5 220.704 265.5C221.23 265.5 221.67 265.618 222.025 265.855C222.38 266.088 222.631 266.418 222.779 266.846C222.927 267.273 222.953 267.772 222.858 268.344L222.05 273.171H219.639L220.368 268.818C220.434 268.397 220.38 268.068 220.206 267.832C220.032 267.595 219.752 267.477 219.368 267.477C219.115 267.477 218.881 267.533 218.668 267.644C218.457 267.753 218.282 267.909 218.14 268.113C217.999 268.316 217.905 268.563 217.859 268.852ZM227.059 273.313C226.267 273.313 225.61 273.157 225.088 272.845C224.568 272.53 224.203 272.081 223.993 271.499C223.783 270.914 223.745 270.219 223.88 269.414C224.011 268.632 224.279 267.948 224.683 267.363C225.091 266.775 225.603 266.318 226.221 265.993C226.839 265.664 227.528 265.5 228.287 265.5C228.826 265.5 229.304 265.584 229.721 265.751C230.139 265.919 230.484 266.169 230.757 266.501C231.03 266.829 231.215 267.233 231.314 267.713C231.412 268.193 231.409 268.744 231.304 269.365L231.21 269.966H224.634L224.856 268.566H229.194C229.233 268.31 229.212 268.081 229.13 267.881C229.048 267.68 228.915 267.524 228.731 267.413C228.55 267.298 228.328 267.24 228.065 267.24C227.799 267.24 227.549 267.302 227.316 267.427C227.086 267.549 226.89 267.713 226.729 267.92C226.568 268.127 226.463 268.361 226.414 268.62L226.152 270.055C226.1 270.374 226.115 270.646 226.197 270.873C226.279 271.1 226.42 271.274 226.621 271.396C226.821 271.514 227.079 271.573 227.395 271.573C227.605 271.573 227.802 271.545 227.986 271.489C228.17 271.43 228.335 271.343 228.479 271.228C228.627 271.11 228.747 270.967 228.839 270.799L231.038 270.863C230.86 271.36 230.586 271.792 230.214 272.16C229.843 272.525 229.39 272.809 228.854 273.013C228.321 273.213 227.723 273.313 227.059 273.313ZM241.507 266.121C241.534 265.75 241.435 265.462 241.212 265.258C240.991 265.055 240.643 264.953 240.166 264.953C239.851 264.953 239.581 264.994 239.358 265.076C239.134 265.155 238.959 265.266 238.83 265.411C238.702 265.552 238.622 265.717 238.589 265.904C238.559 266.052 238.568 266.183 238.614 266.298C238.66 266.413 238.74 266.515 238.855 266.604C238.973 266.693 239.12 266.77 239.294 266.836C239.471 266.902 239.67 266.959 239.89 267.008L240.719 267.206C241.198 267.314 241.614 267.459 241.966 267.639C242.321 267.817 242.608 268.032 242.828 268.285C243.049 268.535 243.2 268.822 243.282 269.148C243.364 269.473 243.371 269.838 243.302 270.242C243.197 270.88 242.945 271.427 242.547 271.884C242.153 272.341 241.637 272.691 241 272.934C240.365 273.177 239.627 273.299 238.786 273.299C237.945 273.299 237.23 273.172 236.642 272.919C236.057 272.663 235.633 272.277 235.37 271.761C235.107 271.245 235.036 270.594 235.158 269.808H237.49C237.453 270.134 237.494 270.405 237.613 270.622C237.734 270.839 237.922 271.003 238.175 271.115C238.428 271.227 238.734 271.282 239.092 271.282C239.42 271.282 239.708 271.238 239.954 271.149C240.204 271.061 240.403 270.937 240.551 270.78C240.702 270.622 240.794 270.441 240.827 270.237C240.86 270.05 240.829 269.887 240.733 269.749C240.641 269.611 240.484 269.491 240.26 269.389C240.04 269.288 239.751 269.196 239.392 269.113L238.382 268.867C237.547 268.663 236.914 268.338 236.484 267.891C236.057 267.444 235.905 266.837 236.03 266.072C236.136 265.444 236.395 264.895 236.809 264.425C237.227 263.955 237.754 263.59 238.392 263.331C239.033 263.068 239.738 262.936 240.507 262.936C241.289 262.936 241.946 263.069 242.478 263.336C243.014 263.599 243.4 263.97 243.637 264.45C243.877 264.926 243.946 265.483 243.844 266.121H241.507ZM246.55 271.184L247.039 268.31H247.369L249.962 265.598H252.693L248.887 269.483H248.251L246.55 271.184ZM244.051 273.171L245.727 263.074H248.138L246.462 273.171H244.051ZM248.754 273.171L247.295 270.025L249.173 268.315L251.539 273.171H248.754ZM253.467 276.01C253.178 276.01 252.908 275.987 252.658 275.941C252.412 275.898 252.202 275.841 252.027 275.769L252.856 274.018C253.076 274.097 253.278 274.142 253.462 274.152C253.649 274.165 253.817 274.133 253.965 274.058C254.116 273.986 254.247 273.856 254.359 273.668L254.497 273.437L253.112 265.598H255.547L256.04 271.006H256.119L258.436 265.598H261.064L256.839 273.895C256.625 274.309 256.367 274.676 256.065 274.995C255.763 275.313 255.398 275.561 254.97 275.739C254.547 275.92 254.045 276.01 253.467 276.01ZM262.948 271.79L262.805 272.337C262.693 272.791 262.541 273.233 262.347 273.664C262.156 274.097 261.967 274.487 261.78 274.832C261.592 275.177 261.443 275.445 261.331 275.635H259.813C259.888 275.458 260 275.195 260.148 274.847C260.299 274.498 260.45 274.106 260.602 273.668C260.753 273.231 260.868 272.789 260.947 272.342L261.055 271.79H262.948ZM266.908 273.171L268.584 263.074H275.476L275.141 265.056H270.689L270.354 267.127H274.367L274.031 269.113H270.019L269.348 273.171H266.908ZM278.002 273.313C277.204 273.313 276.545 273.149 276.026 272.821C275.51 272.492 275.146 272.033 274.936 271.445C274.726 270.857 274.685 270.173 274.813 269.394C274.941 268.619 275.206 267.938 275.606 267.353C276.007 266.768 276.52 266.313 277.145 265.988C277.769 265.663 278.477 265.5 279.269 265.5C280.065 265.5 280.72 265.664 281.236 265.993C281.756 266.321 282.12 266.78 282.331 267.368C282.544 267.956 282.587 268.642 282.459 269.424C282.331 270.2 282.064 270.88 281.66 271.465C281.256 272.047 280.743 272.5 280.122 272.825C279.501 273.151 278.794 273.313 278.002 273.313ZM278.273 271.494C278.569 271.494 278.834 271.406 279.067 271.228C279.304 271.051 279.503 270.803 279.664 270.484C279.825 270.165 279.94 269.795 280.009 269.375C280.078 268.961 280.084 268.597 280.028 268.285C279.976 267.97 279.864 267.725 279.693 267.551C279.522 267.373 279.291 267.284 278.998 267.284C278.702 267.284 278.436 267.375 278.2 267.556C277.963 267.733 277.764 267.981 277.603 268.3C277.445 268.615 277.332 268.985 277.263 269.409C277.194 269.823 277.186 270.186 277.238 270.499C277.291 270.811 277.404 271.056 277.578 271.233C277.753 271.407 277.984 271.494 278.273 271.494ZM283.068 273.171L284.33 265.598H286.671L286.44 266.979H286.519C286.739 266.479 287.026 266.108 287.381 265.865C287.736 265.618 288.121 265.495 288.535 265.495C288.647 265.495 288.758 265.503 288.87 265.52C288.985 265.533 289.093 265.552 289.195 265.579L288.84 267.679C288.729 267.636 288.582 267.605 288.402 267.585C288.221 267.562 288.057 267.551 287.909 267.551C287.623 267.551 287.357 267.615 287.11 267.743C286.867 267.868 286.66 268.044 286.489 268.27C286.321 268.494 286.211 268.757 286.159 269.059L285.478 273.171H283.068ZM293.066 263.074H295.793L297.222 267.299H297.326L300.151 263.074H302.877L298.07 269.799L297.508 273.171H295.083L295.65 269.799L293.066 263.074ZM304.004 273.313C303.206 273.313 302.547 273.149 302.028 272.821C301.512 272.492 301.148 272.033 300.938 271.445C300.728 270.857 300.687 270.173 300.815 269.394C300.943 268.619 301.208 267.938 301.609 267.353C302.009 266.768 302.522 266.313 303.147 265.988C303.771 265.663 304.479 265.5 305.271 265.5C306.067 265.5 306.722 265.664 307.238 265.993C307.758 266.321 308.122 266.78 308.333 267.368C308.546 267.956 308.589 268.642 308.461 269.424C308.333 270.2 308.067 270.88 307.662 271.465C307.258 272.047 306.745 272.5 306.124 272.825C305.503 273.151 304.796 273.313 304.004 273.313ZM304.276 271.494C304.571 271.494 304.836 271.406 305.069 271.228C305.306 271.051 305.505 270.803 305.666 270.484C305.827 270.165 305.942 269.795 306.011 269.375C306.08 268.961 306.086 268.597 306.031 268.285C305.978 267.97 305.866 267.725 305.695 267.551C305.524 267.373 305.293 267.284 305 267.284C304.704 267.284 304.438 267.375 304.202 267.556C303.965 267.733 303.766 267.981 303.605 268.3C303.447 268.615 303.334 268.985 303.265 269.409C303.196 269.823 303.188 270.186 303.24 270.499C303.293 270.811 303.406 271.056 303.58 271.233C303.755 271.407 303.986 271.494 304.276 271.494ZM314.497 269.902L315.217 265.598H317.623L316.361 273.171H314.064L314.295 271.761H314.216C313.983 272.224 313.64 272.592 313.186 272.865C312.733 273.134 312.221 273.269 311.653 273.269C311.137 273.269 310.703 273.151 310.351 272.914C310 272.678 309.75 272.347 309.602 271.923C309.458 271.496 309.431 270.997 309.523 270.425L310.332 265.598H312.742L312.018 269.951C311.955 270.362 312.009 270.686 312.18 270.923C312.355 271.159 312.627 271.278 312.999 271.278C313.239 271.278 313.464 271.225 313.674 271.12C313.884 271.011 314.062 270.855 314.207 270.651C314.354 270.444 314.451 270.195 314.497 269.902Z" fill="#8D4DCE"/>
</g>
<defs>
<linearGradient id="paint0_linear_53_45" x1="371.5" y1="561.008" x2="371.5" y2="942" gradientUnits="userSpaceOnUse">
<stop stop-color="#DEC9FF"/>
<stop offset="1" stop-color="#FFE9CA" stop-opacity="0"/>
</linearGradient>
<clipPath id="clip0_53_45">
<rect width="743" height="832" fill="white"/>
</clipPath>
</defs>
</svg>
