<svg id="Layer_4" data-name="Layer 4" xmlns="http://www.w3.org/2000/svg" viewBox="0 0 32 32"><defs><style>.cls-1{fill:#014a94;}</style></defs><path class="cls-1" d="M2.52,23.41H4.19a1.38,1.38,0,0,1,.94.3.91.91,0,0,1,.34.71.86.86,0,0,1-.52.81,1.24,1.24,0,0,1,.61.39,1.08,1.08,0,0,1,.21.66,1.15,1.15,0,0,1-.35.86,1.42,1.42,0,0,1-1,.33H2.52Zm1.13.74V25H4a.48.48,0,0,0,.36-.13.39.39,0,0,0,.13-.31.4.4,0,0,0-.13-.31A.52.52,0,0,0,4,24.15Zm0,1.61v1H4a1,1,0,0,0,.55-.11.43.43,0,0,0,.17-.39.38.38,0,0,0-.16-.33.71.71,0,0,0-.43-.13Z"/><path class="cls-1" d="M20.72,23.41h1.67a1.36,1.36,0,0,1,.94.3.91.91,0,0,1,.34.71.86.86,0,0,1-.52.81,1.2,1.2,0,0,1,.61.39,1.08,1.08,0,0,1,.21.66,1.15,1.15,0,0,1-.35.86,1.42,1.42,0,0,1-1,.33H20.72Zm1.13.74V25h.34a.48.48,0,0,0,.36-.13.39.39,0,0,0,.13-.31.4.4,0,0,0-.13-.31.52.52,0,0,0-.36-.12Zm0,1.61v1h.38a1,1,0,0,0,.55-.11.43.43,0,0,0,.17-.39.38.38,0,0,0-.16-.33.71.71,0,0,0-.43-.13Z"/><path class="cls-1" d="M8.73,23.41l1.54,4.06H9.13l-.34-.87H7.26L7,27.47H5.89L7.4,23.41Zm-.18,2.42L8,24.38l-.5,1.45Z"/><path class="cls-1" d="M14.2,23.41v4.06H12.86l-1.38-2.84v2.84h-1V23.41h1.34l1.38,2.87V23.41Z"/><path class="cls-1" d="M18.49,23.4,17,25.27l1.65,2.19H17.3L16,25.56v1.9H15V23.4h1v1.83l1.27-1.83Z"/><path class="cls-1" d="M24.6,23.39h1.78a1.26,1.26,0,0,1,.92.34,1.1,1.1,0,0,1,.35.83,1.06,1.06,0,0,1-.67,1,1.35,1.35,0,0,1,.56.75c.18.41.23.8.39,1.16H26.86c-.06-.14-.13-.38-.25-.77a1.82,1.82,0,0,0-.36-.73.48.48,0,0,0-.36-.09h-.23v1.59H24.6Zm1,.75v1h.52a.62.62,0,0,0,.39-.14.45.45,0,0,0,.14-.35.5.5,0,0,0-.55-.51Z"/><path class="cls-1" d="M29.48,23.39v4.08H28.43V23.39Z"/><path class="cls-1" d="M21.49,4.53H10.66A2.82,2.82,0,0,0,7.84,7.35V18.11a2.82,2.82,0,0,0,2.82,2.82H21.49a2.82,2.82,0,0,0,2.82-2.82V7.35A2.83,2.83,0,0,0,21.49,4.53Zm1.08,2.82V17.89L17.4,12.71l2.79-2.84a2.32,2.32,0,0,0-.28-3.58l-.05,0h1.63A1.08,1.08,0,0,1,22.57,7.35Zm-7,8-2.52-2.63,2.82-2.84a2.32,2.32,0,0,0-.29-3.58l0,0h1.64a3.2,3.2,0,0,1,1.31.85,1.46,1.46,0,0,1,0,2.05L15,12.71l6.38,6.48H15.1l.16-.07A2.55,2.55,0,0,0,15.61,15.34Zm-6,2.77V7.35a1.08,1.08,0,0,1,1.08-1.08h2.26a3.14,3.14,0,0,1,1.31.85,1.46,1.46,0,0,1,0,2.05L10.7,12.71,13.9,16a1.78,1.78,0,0,1-.24,2.28,2.9,2.9,0,0,1-1.44.87H10.66A1.08,1.08,0,0,1,9.58,18.11Z"/></svg>