<svg width="772" height="772" viewBox="0 0 772 772" fill="none" xmlns="http://www.w3.org/2000/svg">
<path d="M386 680.084C548.418 680.084 680.084 548.418 680.084 386C680.084 223.582 548.418 91.9163 386 91.9163C223.582 91.9163 91.9163 223.582 91.9163 386C91.9163 548.418 223.582 680.084 386 680.084Z" fill="#01AED6"/>
<path d="M217.125 309.524C214.954 357.774 214.954 407.954 217.125 458.616C217.964 478.969 226.457 498.254 240.905 512.613C255.354 526.972 274.691 535.345 295.049 536.058C354.718 537.827 414.146 537.827 473.333 536.058C493.845 535.412 513.359 527.056 527.982 512.657C542.604 498.258 551.26 478.875 552.221 458.375C553.428 426.771 553.428 396.856 552.221 368.148C551.414 352.02 544.418 336.824 532.689 325.725C520.961 314.625 505.403 308.476 489.255 308.559H296.255C282.504 308.559 282.504 284.434 296.255 284.434H489.255C489.255 255.966 471.644 234.013 431.838 232.083H296.738C276.139 232.544 256.478 240.787 241.709 255.154C226.939 269.52 218.156 288.945 217.125 309.524Z" fill="white"/>
<path d="M487.807 426.771C499.799 426.771 509.52 417.05 509.52 405.059C509.52 393.067 499.799 383.346 487.807 383.346C475.816 383.346 466.095 393.067 466.095 405.059C466.095 417.05 475.816 426.771 487.807 426.771Z" fill="#01AED6"/>
<path d="M487.807 389.377H487.566C482.37 389.377 478.157 393.59 478.157 398.786V445.106C478.157 450.303 482.37 454.515 487.566 454.515H487.807C493.004 454.515 497.216 450.303 497.216 445.106V398.786C497.216 393.59 493.004 389.377 487.807 389.377Z" fill="#01AED6"/>
</svg>
