<svg width="1028" height="308" viewBox="0 0 1028 308" fill="none" xmlns="http://www.w3.org/2000/svg">
<path d="M974.535 3.34497H53.5009C25.8006 3.34497 3.34497 25.8014 3.34497 53.5024V253.396C3.34497 281.097 25.8006 303.554 53.5009 303.554H974.535C1002.24 303.554 1024.69 281.097 1024.69 253.396V53.5024C1024.69 25.8014 1002.24 3.34497 974.535 3.34497Z" fill="white"/>
<path d="M974.501 3.34369C987.804 3.34369 1000.56 8.6281 1009.97 18.0346C1019.37 27.441 1024.66 40.1985 1024.66 53.5011V253.396C1024.66 266.696 1019.37 279.456 1009.97 288.863C1000.56 298.267 987.804 303.554 974.501 303.554H53.5001C40.1977 303.554 27.4402 298.267 18.0341 288.863C8.62803 279.456 3.34374 266.696 3.34374 253.396V53.5011C3.34374 40.1985 8.62803 27.441 18.0341 18.0346C27.4402 8.6281 40.1977 3.34369 53.5001 3.34369H974.501ZM974.501 0H53.5001C39.3108 0 25.7029 5.63644 15.6697 15.6701C5.63659 25.7033 0 39.3117 0 53.5011V253.396C0 267.586 5.63659 281.192 15.6697 291.226C25.7029 301.26 39.3108 306.897 53.5001 306.897H974.501C988.69 306.897 1002.3 301.26 1012.33 291.226C1022.36 281.192 1028 267.586 1028 253.396V53.5011C1028 39.3117 1022.36 25.7033 1012.33 15.6701C1002.3 5.63644 988.69 0 974.501 0Z" fill="#231F20"/>
<path d="M762.944 3.34497V303.554H53.5009C40.1989 303.554 27.4414 298.271 18.0354 288.863C8.62926 279.456 3.34497 266.7 3.34497 253.396V53.5024C3.34497 40.1998 8.62926 27.4419 18.0354 18.0358C27.4414 8.62938 40.1989 3.34497 53.5009 3.34497H762.944Z" fill="#7126B5"/>
<path d="M612.075 278.976C612.075 278.976 604.887 292.349 606.192 295.126C607.496 297.9 622.208 303.182 621.707 304.655C621.206 306.128 589.204 305.325 588.068 303.683C586.932 302.046 587.398 301.377 587.234 297.433C587.066 293.485 598.97 275.197 598.97 275.197" fill="#231F20"/>
<path d="M610.537 307.031C600.905 307.031 587.999 306.495 586.694 304.625C585.783 303.32 585.39 301.722 585.593 300.146C585.593 299.476 585.593 298.638 585.593 297.502C585.424 293.355 594.72 278.678 597.596 274.294C597.713 274.108 597.864 273.944 598.041 273.819C598.223 273.689 598.426 273.603 598.642 273.555C598.857 273.508 599.082 273.503 599.298 273.546C599.514 273.585 599.721 273.672 599.903 273.793C600.274 274.035 600.538 274.41 600.628 274.842C600.723 275.279 600.641 275.728 600.404 276.104C594.819 284.695 588.867 295.26 588.936 297.368V300.176C588.936 301.549 588.936 301.917 589.234 302.418C598.581 303.597 608.01 304.012 617.422 303.653L614.748 302.349C609.064 299.61 605.552 297.804 604.719 295.662C603.246 292.319 608.395 282.289 610.671 278.043C610.775 277.849 610.917 277.676 611.09 277.538C611.258 277.399 611.457 277.296 611.669 277.235C611.88 277.175 612.101 277.153 612.321 277.179C612.537 277.201 612.748 277.266 612.943 277.374C613.137 277.477 613.306 277.62 613.444 277.792C613.582 277.961 613.686 278.16 613.746 278.371C613.811 278.583 613.828 278.803 613.807 279.024C613.785 279.24 613.716 279.451 613.612 279.646C610.036 286.332 607.358 293.023 607.794 294.327C610.381 296.323 613.228 297.969 616.251 299.208C621.772 301.882 624.044 302.988 623.344 305.061C622.942 306.262 621.569 306.465 620.769 306.599C619.966 306.733 615.452 307.031 610.537 307.031Z" fill="#231F20"/>
<path d="M596.922 154.619L539.579 138.27L490.391 211.567C490.391 211.567 421.51 255.802 421.51 257.845C421.51 260.688 433.28 280.147 433.28 280.147C433.28 280.147 476.75 262.895 512.359 246.71C540.715 233.903 569.737 191.538 569.737 191.538L624.342 216.647L590.906 278.976L616.549 281.218C616.549 281.218 653.333 231.061 665.535 203.606C677.741 176.156 596.922 154.619 596.922 154.619Z" fill="#231F20"/>
<path d="M616.385 282.885L590.707 280.648C590.435 280.622 590.171 280.531 589.942 280.376C589.713 280.224 589.528 280.017 589.402 279.775C589.269 279.538 589.199 279.265 589.199 278.989C589.199 278.717 589.269 278.445 589.402 278.207L622.303 217.48L570.445 193.805C565.46 200.863 539.346 236.607 513.166 248.446C478.089 264.26 434.451 281.551 434.019 281.715C433.656 281.87 433.25 281.887 432.874 281.762C432.499 281.641 432.179 281.386 431.98 281.049C428.367 275.063 419.974 260.986 419.974 257.876C419.974 256.705 419.974 254.934 489.324 210.392L538.309 137.398C538.504 137.1 538.784 136.871 539.113 136.745C539.445 136.62 539.808 136.603 540.149 136.694L597.527 153.012C600.101 153.717 656.244 168.861 666.71 190.73C667.79 192.82 668.381 195.127 668.442 197.481C668.498 199.831 668.019 202.168 667.042 204.306C654.905 231.795 618.225 281.715 617.858 282.22C617.69 282.449 617.469 282.63 617.21 282.747C616.951 282.864 616.666 282.911 616.385 282.885ZM593.415 277.503L615.582 279.443C620.23 273.089 652.663 228.214 663.868 202.937C664.645 201.23 665.021 199.373 664.969 197.498C664.917 195.628 664.438 193.792 663.565 192.134C653.735 171.603 597.091 156.356 596.689 156.222L540.482 140.205L491.967 212.5C491.833 212.677 491.678 212.837 491.496 212.966C466.15 229.251 427.966 254.131 423.485 258.308C426.602 265.124 430.166 271.728 434.153 278.073C441.707 275.063 480.262 259.612 511.862 245.336C539.48 232.896 568.268 191.166 568.704 190.73C568.929 190.406 569.257 190.173 569.637 190.069C570.017 189.965 570.419 190 570.778 190.164L625.516 215.139C625.724 215.234 625.909 215.368 626.065 215.532C626.22 215.701 626.337 215.895 626.419 216.111C626.51 216.323 626.557 216.547 626.557 216.78C626.557 217.009 626.51 217.238 626.419 217.45L593.415 277.503Z" fill="#231F20"/>
<path d="M733.919 94.4642C733.919 94.4642 757.792 95.0996 758.228 94.4642C758.66 93.8288 763.51 57.682 759.731 59.1536C755.951 60.6248 748.194 81.3232 748.194 81.3232L731.076 79.7181" fill="white"/>
<path d="M751.04 96.4356C747.296 96.4356 741.844 96.4355 733.854 96.1349C733.633 96.1306 733.418 96.0826 733.219 95.9941C733.02 95.906 732.839 95.7786 732.692 95.6196C732.541 95.4606 732.424 95.2736 732.351 95.0693C732.273 94.865 732.238 94.6473 732.247 94.4296C732.273 93.9916 732.463 93.5795 732.778 93.2754C733.094 92.9718 733.513 92.7986 733.953 92.7908C743.248 93.0586 753.679 93.1921 756.858 92.9917C757.727 88.0429 760.202 67.5117 759.398 61.6597C755.463 68.0516 752.224 74.8448 749.736 81.9235C749.606 82.263 749.369 82.5511 749.062 82.7438C748.751 82.9369 748.393 83.0245 748.03 82.9934L730.943 81.3883C730.502 81.346 730.096 81.1339 729.807 80.797C729.521 80.4601 729.375 80.0247 729.405 79.5828C729.461 79.1426 729.686 78.7405 730.023 78.4554C730.364 78.1708 730.8 78.0239 731.245 78.0446L747.092 79.5495C749.399 73.5641 755.286 59.2188 759.096 57.6137C759.549 57.4253 760.051 57.3921 760.521 57.5195C760.992 57.6465 761.411 57.9268 761.705 58.316C764.715 62.1279 760.569 94.1285 759.597 95.4663C759.165 96.0347 758.863 96.4356 751.04 96.4356Z" fill="#231F20"/>
<path d="M608.93 64.1001C598.261 59.3854 588.133 69.8514 582.181 77.4752C566.497 97.0034 553.889 119.506 540.149 140.542C540.149 140.542 569.741 191.935 610.736 166.087L656.076 97.371H729.37C729.37 97.371 729.604 91.954 729.37 78.378C729.37 78.1106 612.64 65.7052 608.93 64.1001Z" fill="white"/>
<path d="M587.562 174.782C584.327 174.787 581.105 174.394 577.965 173.612C554.226 167.724 539.311 142.244 538.676 141.142C538.521 140.879 538.439 140.581 538.439 140.274C538.439 139.968 538.521 139.665 538.676 139.402C542.723 133.216 546.736 126.798 550.615 120.578C559.768 105.199 569.819 90.3718 580.708 76.1716C584.586 71.3567 596.292 56.7107 609.397 62.4953C612.239 63.465 649.756 67.8454 720.878 75.5699C730.908 76.6398 730.908 76.6398 730.908 78.044C731.111 91.4196 730.908 96.9701 730.908 97.2042C730.891 97.6362 730.709 98.0444 730.398 98.3437C730.087 98.6426 729.668 98.8098 729.236 98.8094H656.978L612.105 166.791C611.993 166.994 611.815 167.158 611.604 167.258C604.477 172.018 596.132 174.631 587.562 174.782ZM542.123 140.339C544.931 144.823 558.839 165.418 578.902 170.433C584.146 171.655 589.584 171.776 594.871 170.787C600.162 169.798 605.19 167.716 609.634 164.683L654.771 96.3015C654.927 96.0704 655.138 95.8795 655.38 95.7456C655.626 95.6116 655.899 95.5387 656.175 95.5326H727.867C727.867 93.1919 727.867 88.1425 727.867 79.7161L720.809 78.9472C645.377 70.7545 610.701 66.6753 608.395 65.5717C601.138 62.228 593.048 66.5081 583.619 78.2782C572.743 92.3742 562.696 107.089 553.526 122.349C549.812 128.301 545.967 134.322 542.123 140.339Z" fill="#231F20"/>
<path d="M620.065 63.3658C607.423 60.423 612.105 38.4543 615.448 29.5597C616.105 27.5823 617.128 25.7448 618.459 24.1427C619.91 22.7596 621.638 21.7014 623.53 21.0383C625.417 20.3753 627.43 20.1226 629.425 20.2971C633.399 20.6686 637.343 21.3053 641.23 22.2033C650.111 23.7021 659.224 22.9082 667.712 19.8958C670.589 18.8591 673.897 17.6553 676.472 19.2604C677.258 19.8384 677.905 20.5804 678.372 21.4353C678.843 22.2901 679.119 23.2369 679.18 24.2092C679.331 26.5154 678.89 28.8211 677.901 30.9095C676.912 32.998 675.409 34.8005 673.53 36.1469C669.656 38.6033 665.207 40.0093 660.624 40.2262C661.224 43.8044 661.829 44.9412 659.687 47.8837C657.557 50.5306 654.991 52.7927 652.098 54.5715C648.992 56.3437 645.761 57.8858 642.435 59.1859C635.447 62.2622 628.622 64.9705 620.7 63.4993L620.065 63.3658Z" fill="white"/>
<path d="M625.249 65.571C623.62 65.571 622 65.4254 620.398 65.136H619.698C618.109 64.8017 616.619 64.114 615.331 63.124C614.049 62.134 613.003 60.8676 612.273 59.4184C607.725 50.9916 611.336 36.0113 613.88 29.3235C614.61 27.1374 615.746 25.1073 617.223 23.338C618.839 21.7861 620.765 20.5935 622.873 19.8389C624.981 19.0838 627.227 18.7836 629.46 18.9577C632.289 19.1283 635.097 19.5421 637.852 20.1952L641.498 20.8972C650.098 22.3368 658.922 21.5662 667.146 18.6571C670.489 17.5202 674.13 16.1825 677.176 18.1888C678.156 18.9002 678.964 19.8216 679.543 20.8863C680.121 21.9511 680.454 23.1316 680.519 24.3415C680.696 26.9219 680.212 29.5049 679.115 31.8456C678.013 34.1864 676.333 36.2074 674.234 37.7166C670.671 40.1182 666.546 41.5475 662.261 41.8629C662.619 43.0987 662.667 44.4022 662.408 45.6609C662.144 46.9201 661.578 48.0954 660.758 49.0858C658.49 51.8935 655.765 54.3011 652.698 56.2082C650.214 57.6785 647.623 58.9532 644.94 60.0201L642.802 60.9565C637.33 63.6851 631.352 65.2561 625.249 65.571ZM628.592 22.101C626.933 22.0046 625.27 22.2517 623.711 22.8271C622.152 23.4024 620.726 24.2935 619.53 25.4446C618.333 26.8852 617.422 28.543 616.856 30.3269C614.113 37.6497 611.371 50.9916 615.051 57.8465C615.556 58.8703 616.29 59.7657 617.193 60.4663C618.096 61.1669 619.145 61.6546 620.264 61.8926H620.8C628.091 63.2636 634.177 60.9228 641.563 57.7126L643.74 56.7766C646.253 55.7939 648.681 54.5966 650.992 53.1988C653.722 51.5414 656.14 49.4258 658.149 46.9455C659.553 44.9729 659.453 44.3707 659.017 41.8629L658.784 40.5588C658.715 40.1126 658.823 39.6565 659.086 39.2885C659.216 39.114 659.384 38.968 659.574 38.8591C659.764 38.7498 659.972 38.6799 660.188 38.6531H660.926C664.978 38.447 668.908 37.191 672.325 35.0083C673.979 33.8455 675.301 32.2789 676.173 30.4582C677.046 28.6376 677.439 26.6239 677.309 24.6088C677.266 23.884 677.068 23.1765 676.735 22.5316C676.402 21.8867 675.936 21.3187 675.37 20.8639C673.53 19.727 670.722 20.8639 668.213 21.5995C659.514 24.6905 650.167 25.5077 641.062 23.9734C639.792 23.773 638.556 23.5052 637.282 23.2715C634.717 22.6418 632.099 22.25 629.46 22.101H628.592Z" fill="#231F20"/>
<path d="M654.033 57.0762C654.033 57.0762 654.935 67.6096 652.996 68.6458C651.057 69.6825 648.115 66.6731 648.115 66.6731" fill="white"/>
<path d="M652.098 70.521C650.115 70.2731 648.292 69.3241 646.949 67.846C646.677 67.5242 646.534 67.1117 646.556 66.691C646.573 66.2703 646.75 65.8724 647.053 65.5765C647.351 65.2807 647.752 65.1092 648.171 65.0962C648.595 65.0828 649.005 65.2288 649.32 65.5053C650.391 66.5752 651.864 67.3445 652.231 67.1773C652.668 63.8475 652.668 60.4753 652.231 57.1459C652.201 56.704 652.348 56.2686 652.633 55.9316C652.923 55.5947 653.329 55.3827 653.769 55.3399C653.989 55.3218 654.21 55.3472 654.421 55.4146C654.629 55.482 654.823 55.5904 654.992 55.7334C655.16 55.8764 655.298 56.0513 655.398 56.2478C655.497 56.4439 655.557 56.6586 655.575 56.878C656.244 64.6025 655.575 69.0165 653.635 70.0528C653.169 70.3318 652.642 70.4925 652.098 70.521Z" fill="#231F20"/>
<path d="M661.76 39.1912C663.565 43.6052 656.339 55.9105 654.3 59.2541C651.45 64.4038 648.482 69.464 645.407 74.4353C643.468 77.5785 634.976 73.0643 634.038 71.0912L628.32 84.7008C624.29 83.1735 620.873 80.3659 618.588 76.709C613.509 69.8541 614.312 68.2157 614.312 68.2157L622.972 53.67C625.011 54.5477 627.257 54.847 629.456 54.5343C631.654 54.2216 633.727 53.3093 635.442 51.8977C640.504 47.7083 644.707 42.575 647.813 36.7835C647.813 36.7835 659.985 34.8441 661.76 39.1912Z" fill="white"/>
<path d="M628.32 86.7043H627.953C623.521 85.1281 619.75 82.0998 617.254 78.1108C613.474 72.9948 611.971 69.5505 612.805 67.8784L621.564 53.1992C621.789 52.8286 622.147 52.5586 622.566 52.4463C622.981 52.334 623.426 52.3885 623.806 52.5971C625.573 53.3245 627.503 53.5534 629.391 53.2584C631.278 52.9638 633.045 52.1565 634.505 50.9255C639.347 46.8937 643.368 41.9665 646.344 36.413C646.457 36.1875 646.625 35.9918 646.828 35.8411C647.031 35.6904 647.264 35.5884 647.515 35.5439C649.752 35.109 661.121 33.3034 663.298 38.6202C665.034 42.8667 660.957 51.0926 656.309 59.3518L655.773 60.3216C652.931 65.4043 649.921 70.5202 646.845 75.5359C646.409 76.2007 645.796 76.7294 645.074 77.0607C644.353 77.392 643.554 77.5125 642.764 77.4084C639.835 77.1173 637.032 76.0556 634.639 74.3321L629.857 85.7346C629.723 86.0274 629.507 86.275 629.231 86.4469C628.959 86.6188 628.644 86.7082 628.32 86.7043ZM615.949 69.049C616.774 71.6402 618.13 74.0319 619.927 76.0711C621.88 78.8421 624.445 81.1296 627.417 82.7585L632.501 70.6873C632.613 70.3949 632.812 70.1418 633.067 69.9578C633.321 69.7742 633.624 69.6675 633.939 69.6507C634.259 69.6343 634.578 69.7107 634.855 69.871C635.136 70.0308 635.36 70.2679 635.511 70.5535C637.611 72.4182 640.241 73.5866 643.031 73.8976C643.334 73.8976 643.835 73.8976 644.003 73.5965C647.044 68.6477 650.055 63.565 652.832 58.516L653.398 57.5463C658.814 47.9161 661.121 41.9307 660.084 39.7234C659.047 37.5166 653.398 37.8177 648.75 38.5196C645.619 44.2856 641.381 49.3765 636.28 53.5003C634.501 54.8747 632.423 55.8147 630.22 56.2444C628.013 56.6738 625.737 56.5814 623.573 55.9745L615.949 69.049Z" fill="#231F20"/>
<path d="M647.377 70.7876C645.809 70.296 644.465 69.2624 643.588 67.8719C642.716 66.4811 642.362 64.8242 642.595 63.197" fill="white"/>
<path d="M647.381 72.3612H646.979C645.027 71.7685 643.351 70.5012 642.25 68.786C641.148 67.0707 640.69 65.0194 640.962 62.9983C640.997 62.5552 641.204 62.144 641.545 61.8554C641.882 61.5669 642.323 61.4247 642.768 61.4602C643.208 61.496 643.619 61.706 643.908 62.0446C644.198 62.3833 644.34 62.8225 644.305 63.2662C644.085 64.5054 644.323 65.7831 644.975 66.8599C645.627 67.9368 646.647 68.7393 647.847 69.1177C648.292 69.1756 648.694 69.4067 648.966 69.7613C649.238 70.1155 649.359 70.5634 649.303 71.007C649.247 71.4506 649.014 71.8527 648.659 72.1257C648.305 72.3983 647.856 72.5193 647.415 72.4614L647.381 72.3612Z" fill="#231F20"/>
<path d="M642.396 55.0046C642.936 53.6354 643.1 52.1452 642.867 50.6912C642.841 49.5548 642.651 48.4279 642.297 47.3476C642.103 46.8154 641.796 46.3316 641.394 45.9278C640.997 45.5239 640.517 45.2099 639.991 45.0068C639.498 44.8807 638.984 44.8604 638.483 44.9468C637.982 45.0332 637.503 45.2246 637.079 45.5084C636.241 46.0798 635.546 46.8344 635.041 47.7151C633.905 49.601 633.283 51.7525 633.244 53.9537C633.2 56.1549 633.74 58.328 634.807 60.2545V59.7867" fill="white"/>
<path d="M634.539 61.7256C634.298 61.7377 634.056 61.6816 633.844 61.5632C633.628 61.4449 633.455 61.2695 633.334 61.057C632.116 58.8631 631.503 56.3855 631.559 53.8772C631.611 51.3689 632.328 48.9194 633.637 46.7786C634.289 45.7009 635.153 44.7679 636.176 44.0371C636.807 43.6332 637.511 43.365 638.245 43.2501C638.984 43.1347 639.736 43.1749 640.457 43.368C641.23 43.6405 641.93 44.0824 642.509 44.6612C643.087 45.2396 643.528 45.9402 643.8 46.7121C644.202 48.0118 644.405 49.3643 644.405 50.7244C644.677 52.4915 644.444 54.2997 643.735 55.9411C643.524 56.3311 643.165 56.6231 642.742 56.7544C642.314 56.8853 641.856 56.8455 641.459 56.643C641.252 56.5103 641.075 56.335 640.941 56.1285C640.807 55.922 640.716 55.6897 640.681 55.446C640.643 55.2029 640.656 54.9541 640.72 54.7165C640.785 54.4789 640.902 54.2582 641.062 54.0686C641.459 53.0008 641.563 51.8458 641.36 50.7244C641.351 49.7586 641.196 48.7997 640.893 47.8823C640.802 47.576 640.643 47.2935 640.431 47.0564C640.215 46.8192 639.952 46.6331 639.654 46.5112C639.399 46.4503 639.131 46.4456 638.872 46.4974C638.613 46.5493 638.366 46.6568 638.15 46.8123C637.52 47.2391 637.006 47.8127 636.647 48.4844C635.745 49.9837 635.218 51.6769 635.105 53.4228C634.997 55.1683 635.308 56.9147 636.012 58.5159C636.241 58.7051 636.405 58.9625 636.479 59.2515C636.587 59.6709 636.552 60.1145 636.384 60.5132C636.215 60.9123 635.917 61.244 635.542 61.4583C635.231 61.6129 634.889 61.7036 634.539 61.7256Z" fill="#231F20"/>
<path d="M634.043 71.4221C631.965 69.2473 630.561 66.5183 629.995 63.5642C629.995 63.5642 626.017 71.556 631.499 77.4745L634.043 71.4221Z" fill="#231F20"/>
<path d="M631.499 79.1474C631.27 79.1452 631.041 79.0964 630.829 79.0044C630.613 78.9129 630.423 78.7794 630.263 78.6122C624.078 71.9248 628.324 63.1974 628.492 62.8294C628.657 62.5063 628.92 62.2445 629.244 62.0821C629.572 61.9197 629.939 61.8653 630.298 61.9266C630.652 61.9901 630.98 62.1677 631.227 62.4333C631.473 62.6985 631.628 63.0371 631.667 63.3978C632.19 65.9256 633.434 68.2481 635.244 70.0856C635.473 70.3189 635.628 70.6152 635.688 70.937C635.749 71.2592 635.71 71.5914 635.58 71.8911L633.036 77.9435C632.924 78.2031 632.751 78.4304 632.531 78.6057C632.306 78.7807 632.047 78.8977 631.766 78.9465L631.499 79.1474ZM630.298 69.1159C630.091 70.8234 630.345 72.5546 631.032 74.1316L632 71.8911C631.365 71.0342 630.795 70.1288 630.298 69.1829V69.1159Z" fill="#231F20"/>
<path d="M653.73 52.4747C654.452 51.5607 654.741 50.5884 654.378 50.3025C654.015 50.017 653.139 50.5263 652.417 51.4398C651.696 52.3538 651.406 53.3261 651.769 53.6116C652.132 53.8976 653.009 53.3883 653.73 52.4747Z" fill="#231F20"/>
<path d="M655.406 53.0008C655.143 53.009 654.879 52.9485 654.646 52.8254C654.413 52.7023 654.214 52.5209 654.071 52.2989L651.363 48.6874C651.234 48.5125 651.139 48.3133 651.087 48.1021C651.035 47.8909 651.026 47.6714 651.061 47.4568C651.095 47.2421 651.173 47.0361 651.285 46.8512C651.402 46.6663 651.553 46.5061 651.73 46.3799C652.085 46.1139 652.529 45.9998 652.97 46.0624C653.406 46.1251 653.804 46.3596 654.071 46.7147L656.745 50.3257C656.875 50.5033 656.97 50.705 657.022 50.9192C657.073 51.133 657.082 51.3551 657.047 51.5723C657.013 51.79 656.935 51.9987 656.823 52.1866C656.706 52.374 656.555 52.5373 656.378 52.6664C656.097 52.8746 655.756 52.9917 655.406 53.0008Z" fill="#231F20"/>
<path d="M429.669 254.999C429.669 254.999 403.086 270.782 403.086 273.292C403.086 275.797 400.143 274.458 409.272 293.619C413.117 301.744 430.839 306.996 429.034 300.876C423.884 283.252 424.218 281.382 424.218 281.382L445.353 272.89" fill="#231F20"/>
<path d="M426.221 305.225C420.57 305.225 410.74 300.677 407.73 294.323C400.04 278.103 400.675 276 401.277 273.957C401.313 273.736 401.313 273.512 401.277 273.292C401.277 272.255 401.277 269.948 428.662 253.56C429.049 253.34 429.507 253.28 429.939 253.392C430.37 253.504 430.74 253.781 430.97 254.165C431.189 254.545 431.249 254.999 431.136 255.422C431.023 255.85 430.747 256.212 430.367 256.437C418.798 263.327 406.192 271.516 404.621 273.624C404.585 274.056 404.495 274.484 404.353 274.894C404.019 276 403.484 277.836 410.639 292.885C412.612 297.066 419.132 300.677 424.015 301.644C425.105 301.973 426.267 301.973 427.358 301.644C427.358 301.644 427.358 301.644 427.358 301.312C425.072 294.733 423.448 287.947 422.51 281.049C422.558 280.769 422.676 280.509 422.851 280.285C423.026 280.064 423.253 279.887 423.513 279.775L444.645 271.318C445.055 271.149 445.513 271.153 445.919 271.322C446.325 271.49 446.649 271.814 446.817 272.22C446.986 272.635 446.986 273.093 446.817 273.508C446.649 273.918 446.325 274.25 445.914 274.428L425.853 282.419C427.085 288.483 428.636 294.474 430.501 300.374C430.675 300.802 430.76 301.26 430.748 301.722C430.737 302.18 430.631 302.634 430.436 303.052C430.241 303.467 429.963 303.843 429.617 304.145C429.272 304.452 428.867 304.681 428.428 304.823C427.719 305.074 426.974 305.212 426.221 305.225Z" fill="#231F20"/>
<path d="M733.919 102.957C733.919 102.957 757.792 103.592 758.228 102.957C758.66 102.322 765.618 64.035 761.839 65.6064C758.059 67.1778 750.237 87.2745 750.237 87.2745L731.076 88.2109" fill="white"/>
<path d="M751.036 104.93C747.326 104.93 741.875 104.93 733.85 104.629C733.413 104.612 732.999 104.423 732.701 104.105C732.398 103.786 732.238 103.362 732.247 102.924C732.243 102.702 732.282 102.48 732.368 102.275C732.45 102.07 732.58 101.884 732.739 101.73C732.899 101.576 733.089 101.457 733.297 101.38C733.508 101.304 733.729 101.271 733.949 101.285C743.313 101.519 753.779 101.653 756.923 101.486C759.169 90.5472 760.634 79.4622 761.303 68.3154C757.459 74.4896 754.267 81.0453 751.775 87.8769C751.658 88.178 751.455 88.4393 751.196 88.6293C750.937 88.8194 750.626 88.9295 750.302 88.9468L731.176 89.8828C730.956 89.894 730.735 89.8617 730.528 89.7878C730.321 89.7139 730.131 89.5999 729.971 89.4526C729.638 89.1546 729.444 88.7382 729.422 88.2946C729.396 87.8514 729.552 87.4173 729.85 87.0882C730.148 86.7586 730.567 86.5612 731.007 86.5392L749.066 85.6364C751.338 79.8851 757.325 65.5734 761.204 64.0685C761.64 63.8755 762.128 63.8366 762.59 63.9579C763.052 64.0798 763.459 64.3545 763.744 64.7372C767.087 68.9504 759.765 103.693 759.597 103.927C759.429 104.161 758.897 104.93 751.036 104.93Z" fill="#231F20"/>
<path d="M634.043 98.4402L615.586 140.171L626.251 152.408L638.155 140.171V94.7617L634.043 98.4402Z" fill="#231F20"/>
<path d="M603.881 70.5198L739.37 84.8651L735.491 109.308C735.491 109.308 625.145 111.883 598.028 103.223" fill="white"/>
<path d="M698.807 111.348C664.066 111.348 614.848 110.311 597.527 104.827C597.307 104.762 597.104 104.653 596.927 104.508C596.745 104.363 596.599 104.185 596.491 103.983C596.383 103.781 596.313 103.56 596.292 103.332C596.27 103.104 596.292 102.874 596.357 102.654C596.421 102.434 596.529 102.23 596.676 102.053C596.819 101.875 597 101.727 597.199 101.619C597.402 101.51 597.622 101.442 597.851 101.419C598.08 101.396 598.309 101.418 598.529 101.484C623.607 109.442 721.211 107.77 734.052 107.502L737.396 86.1691L603.643 72.0247C603.427 72.0026 603.211 71.9374 603.017 71.8333C602.823 71.7288 602.65 71.5875 602.512 71.4165C602.373 71.2459 602.27 71.0493 602.205 70.8381C602.14 70.6269 602.119 70.4049 602.14 70.1855C602.162 69.966 602.227 69.7526 602.33 69.5583C602.438 69.3639 602.576 69.192 602.749 69.052C602.918 68.9125 603.116 68.8075 603.328 68.744C603.54 68.6801 603.76 68.6589 603.98 68.6805L739.503 83.0259C739.953 83.0907 740.363 83.3308 740.639 83.6945C740.778 83.8729 740.877 84.0772 740.937 84.2958C740.994 84.5139 741.007 84.742 740.972 84.9653L737.093 109.409C737.033 109.799 736.83 110.153 736.532 110.411C736.234 110.668 735.849 110.81 735.456 110.813C733.884 110.913 718.736 111.348 698.807 111.348Z" fill="#231F20"/>
</svg>
