<svg width="1031" height="76" viewBox="0 0 1031 76" fill="none" xmlns="http://www.w3.org/2000/svg">
<path d="M880.69 53.5803C885.38 53.9103 890.86 50.2603 892.79 48.1803C896.047 44.7744 897.873 40.2494 897.894 35.5372C897.914 30.825 896.127 26.2843 892.9 22.8503C890.39 20.0203 884.49 16.8503 880.76 17.3303H867.22V53.5803H880.69ZM874.86 45.7403V25.1203C876.978 24.9803 879.102 24.9803 881.22 25.1203C882.882 25.3144 884.468 25.9268 885.83 26.9003C893.59 32.2103 890.36 44.9003 881.09 45.7103C879.015 45.8452 876.934 45.8452 874.86 45.7103V45.7403Z" fill="#008CEB"/>
<path d="M999.34 53.66H1007.04V45.86H1022.33V53.62H1030.04V40.76C1030.04 36.88 1030.36 32.04 1029.39 28.53C1028.51 25.3131 1026.6 22.4723 1023.96 20.4412C1021.31 18.4101 1018.07 17.3003 1014.74 17.281C1011.4 17.2618 1008.15 18.3341 1005.49 20.3345C1002.82 22.3349 1000.88 25.1535 999.96 28.36C998.96 31.83 999.28 36.81 999.28 40.66V53.73L999.34 53.66ZM1007.05 38.01C1007.05 34.78 1006.66 31.31 1008.18 28.82C1008.85 27.6739 1009.81 26.7252 1010.96 26.0701C1012.12 25.415 1013.42 25.0768 1014.75 25.09C1016.07 25.0987 1017.37 25.4509 1018.51 26.1119C1019.65 26.7729 1020.6 27.7199 1021.27 28.86C1022.77 31.44 1022.41 34.68 1022.37 38.02L1007.05 38.01Z" fill="#008CEB"/>
<path d="M911.22 53.6499H918.9C918.9 52.0199 918.69 47.0399 918.97 45.8499H934.22V53.6499H941.91V40.7099C941.91 37.0199 942.26 31.7099 941.27 28.4699C940.382 25.2594 938.469 22.4269 935.823 20.4031C933.177 18.3793 929.943 17.275 926.612 17.258C923.281 17.241 920.035 18.3124 917.369 20.3091C914.702 22.3058 912.761 25.1186 911.84 28.3199C910.84 31.6799 911.16 36.8299 911.16 40.5699C911.16 44.8899 911.06 49.3299 911.16 53.6399L911.22 53.6499ZM918.9 38.0099C918.9 34.7799 918.52 31.2699 920.04 28.8299C920.708 27.6867 921.664 26.7383 922.812 26.0793C923.96 25.4202 925.261 25.0734 926.585 25.0734C927.909 25.0734 929.21 25.4202 930.358 26.0793C931.507 26.7383 932.462 27.6867 933.13 28.8299C934.64 31.4199 934.28 34.6999 934.25 37.9999L918.9 38.0099Z" fill="#008CEB"/>
<path d="M955.46 31.4898L955.35 36.8798C955.35 41.4098 955.13 49.8798 955.35 53.5398H962.88C963.05 50.9598 962.61 32.5398 963.08 31.9898C963.08 28.4198 966.81 25.0898 970.58 25.0798C972.534 25.0706 974.416 25.8198 975.83 27.1698C977.228 28.4266 978.088 30.1747 978.23 32.0498C978.58 32.2498 978.3 51.4598 978.41 53.5898H985.95L985.89 31.5898C986.08 29.8598 985.04 27.2098 984.38 25.8598C983.142 23.2975 981.212 21.1325 978.808 19.6099C976.404 18.0873 973.622 17.2676 970.776 17.2437C967.931 17.2198 965.135 17.9925 962.706 19.4745C960.277 20.9565 958.31 23.0886 957.03 25.6298C956.38 26.9898 955.3 29.7198 955.46 31.4898Z" fill="#008CEB"/>
<path d="M818.33 70.66C837.842 70.66 853.66 54.8422 853.66 35.33C853.66 15.8178 837.842 0 818.33 0C798.818 0 783 15.8178 783 35.33C783 54.8422 798.818 70.66 818.33 70.66Z" fill="#008CEB"/>
<path d="M838.91 35.4802V45.4802C838.91 46.1202 838.63 46.2602 838.09 45.9402C837.365 45.5035 836.61 45.1192 835.83 44.7902C833.471 43.8474 830.915 43.5039 828.39 43.7902C825.655 44.144 822.97 44.8152 820.39 45.7902C817.81 46.6602 815.27 47.6102 812.63 48.3402C810.445 48.9914 808.169 49.2885 805.89 49.2202C803.361 49.1292 800.903 48.3627 798.77 47.0002C798.5 46.8425 798.279 46.6135 798.131 46.3383C797.982 46.063 797.913 45.7523 797.93 45.4402V25.8802C797.93 25.5602 797.93 25.1902 798.21 25.0302C798.49 24.8702 798.79 25.1302 799.03 25.2902C801.339 26.8311 804.064 27.6301 806.84 27.5802C808.838 27.5283 810.818 27.1916 812.72 26.5802C815.41 25.7402 818.01 24.6402 820.66 23.7002C822.72 22.909 824.831 22.2608 826.98 21.7602C828.824 21.3263 830.737 21.2801 832.6 21.6244C834.462 21.9686 836.233 22.6959 837.8 23.7602C838.159 23.98 838.452 24.2912 838.651 24.662C838.85 25.0329 838.946 25.4498 838.93 25.8702V35.5802L838.91 35.4802Z" fill="#FEFEFE"/>
<path d="M748.63 4H687.52C685.024 4 683 6.02367 683 8.52V69.63C683 72.1263 685.024 74.15 687.52 74.15H748.63C751.126 74.15 753.15 72.1263 753.15 69.63V8.52C753.15 6.02367 751.126 4 748.63 4Z" fill="#E82529"/>
<path d="M712.772 18.401C713.706 17.3693 713.776 15.911 712.929 15.1436C712.082 14.3763 710.637 14.5905 709.703 15.6222C708.769 16.6539 708.699 18.1123 709.546 18.8796C710.394 19.647 711.838 19.4327 712.772 18.401Z" fill="#FEFEFE"/>
<path d="M716.484 36.7941C717.418 35.7624 717.489 34.304 716.641 33.5367C715.794 32.7694 714.349 32.9836 713.415 34.0153C712.481 35.047 712.411 36.5054 713.258 37.2727C714.106 38.04 715.55 37.8258 716.484 36.7941Z" fill="#FEFEFE"/>
<path d="M734.13 52.0218C735.238 51.198 735.567 49.7649 734.865 48.8208C734.164 47.8768 732.696 47.7793 731.588 48.6031C730.48 49.4269 730.151 50.86 730.853 51.8041C731.555 52.7481 733.022 52.8456 734.13 52.0218Z" fill="#FEFEFE"/>
<path d="M707.26 32.4198H710.81C710.884 32.4181 710.955 32.3899 711.01 32.3404C711.065 32.2908 711.101 32.2233 711.11 32.1498L712.72 20.4298C712.727 20.3924 712.727 20.3539 712.719 20.3166C712.712 20.2792 712.697 20.2437 712.676 20.2122C712.654 20.1806 712.627 20.1535 712.595 20.1325C712.563 20.1115 712.528 20.097 712.49 20.0898H708.87C708.797 20.0953 708.728 20.1248 708.674 20.1736C708.62 20.2225 708.583 20.288 708.57 20.3598L706.97 32.0698C706.966 32.1119 706.97 32.1544 706.982 32.1948C706.995 32.2352 707.015 32.2727 707.042 32.3053C707.069 32.3378 707.102 32.3647 707.14 32.3844C707.177 32.404 707.218 32.4161 707.26 32.4198Z" fill="#FEFEFE"/>
<path d="M721.99 24.68L720.99 32.1C720.979 32.1899 721.002 32.2808 721.056 32.3536C721.11 32.4263 721.191 32.4752 721.28 32.49H724.81C724.894 32.4906 724.975 32.4603 725.037 32.405C725.1 32.3496 725.14 32.2731 725.15 32.19L726.15 24.78C726.31 23.6456 726.015 22.4937 725.33 21.5758C724.644 20.6579 723.623 20.0483 722.49 19.88C722.327 19.87 722.163 19.87 722 19.88C720.285 19.8301 718.569 19.8802 716.86 20.03C716.375 20.0835 715.921 20.2975 715.572 20.6381C715.222 20.9787 714.996 21.4264 714.93 21.91L713.35 32.46C713.785 31.9911 714.361 31.6768 714.991 31.5649C715.621 31.453 716.27 31.5496 716.84 31.84C717.112 31.9836 717.34 32.1978 717.5 32.46L718.74 23.46C718.75 23.377 718.79 23.3004 718.853 23.2451C718.916 23.1897 718.996 23.1595 719.08 23.16H720.52C721.57 23.22 722.09 23.72 721.99 24.68Z" fill="#FEFEFE"/>
<path d="M727.55 32.42H731.11C731.183 32.4145 731.252 32.385 731.306 32.3362C731.36 32.2873 731.397 32.2218 731.41 32.15L733.72 15.54C733.723 15.4979 733.717 15.4558 733.704 15.4159C733.69 15.376 733.669 15.3392 733.641 15.3077C733.613 15.2761 733.579 15.2503 733.541 15.2318C733.503 15.2133 733.462 15.2025 733.42 15.2H729.86C729.783 15.1968 729.707 15.2228 729.648 15.2728C729.588 15.3228 729.55 15.3931 729.54 15.47L727.24 32.05C727.231 32.1277 727.252 32.206 727.298 32.2691C727.345 32.3321 727.413 32.3753 727.49 32.39L727.55 32.42Z" fill="#FEFEFE"/>
<path d="M700.81 16.35L699.15 27.87C699.13 28.0463 699.182 28.2232 699.292 28.362C699.403 28.5007 699.564 28.5899 699.74 28.61H706.07C706.142 28.61 706.21 28.6384 706.261 28.6891C706.312 28.7397 706.34 28.8084 706.34 28.88L705.81 32.12C705.8 32.2031 705.76 32.2796 705.697 32.3349C705.635 32.3903 705.554 32.4206 705.47 32.42H698.06C697.162 32.42 696.3 32.0645 695.663 31.4312C695.026 30.7979 694.665 29.9382 694.66 29.04C694.65 28.8801 694.65 28.7198 694.66 28.56L696.42 16.21C696.425 16.1472 696.454 16.0886 696.5 16.046C696.546 16.0034 696.607 15.9798 696.67 15.98H700.35C700.447 15.9848 700.538 16.0254 700.606 16.0937C700.675 16.1621 700.715 16.2534 700.72 16.35H700.81Z" fill="#FEFEFE"/>
<path d="M741.07 34L737.14 25.63C737.11 25.5729 737.095 25.5094 737.095 25.445C737.095 25.3805 737.11 25.3171 737.14 25.26L741.34 20.68C741.34 20.51 741.34 20.17 741.12 20.17H737.24C737.185 20.1692 737.129 20.1794 737.078 20.2C737.026 20.2206 736.98 20.2511 736.94 20.29L732.72 25.2C732.69 25.2535 732.675 25.3137 732.675 25.375C732.675 25.4362 732.69 25.4964 732.72 25.55L736.82 34.37C736.849 34.4255 736.892 34.4729 736.945 34.5078C736.997 34.5427 737.057 34.5641 737.12 34.57H740.72C740.77 34.5713 740.82 34.5628 740.866 34.5449C740.913 34.527 740.955 34.5001 740.992 34.4658C741.028 34.4314 741.057 34.3903 741.077 34.3446C741.098 34.299 741.109 34.2499 741.11 34.2C741.111 34.1178 741.087 34.0373 741.04 33.97L741.07 34Z" fill="#FEFEFE"/>
<path d="M712.72 38.3999C712.627 38.3999 712.537 38.4316 712.464 38.4897C712.391 38.5479 712.34 38.6291 712.32 38.7199L710.92 48.9999C710.93 49.0996 710.93 49.2001 710.92 49.2999C710.757 50.1456 710.348 50.9245 709.745 51.5398C709.143 52.155 708.372 52.5793 707.53 52.7599V52.9299C707.736 53.9486 708.072 54.9367 708.53 55.8699C708.569 55.9564 708.638 56.0261 708.724 56.0664C708.811 56.1068 708.908 56.1151 709 56.0899C710.479 55.934 711.867 55.3046 712.959 54.2955C714.051 53.2864 714.788 51.9516 715.06 50.4899L716.66 38.8199C716.674 38.7178 716.648 38.6143 716.586 38.5318C716.524 38.4494 716.432 38.3947 716.33 38.3799L712.72 38.3999Z" fill="#FEFEFE"/>
<path d="M731.65 46.5401L732.52 36.6601C732.53 36.5301 732.59 36.409 732.686 36.3216C732.783 36.2342 732.91 36.1871 733.04 36.1901H736.5C736.547 36.1888 736.594 36.1967 736.638 36.2136C736.683 36.2305 736.723 36.2559 736.757 36.2884C736.792 36.3209 736.819 36.3599 736.839 36.4031C736.858 36.4462 736.869 36.4928 736.87 36.5401V36.6201L734.87 46.5101C734.859 46.5679 734.83 46.6206 734.787 46.6603C734.744 46.7 734.688 46.7245 734.63 46.7301H731.96C731.72 46.9001 731.63 46.8001 731.65 46.5401Z" fill="#FEFEFE"/>
<path d="M747.07 57.6198C728.344 56.4481 709.547 58.0316 691.28 62.3198L694.39 64.1198C694.76 64.334 695.169 64.4726 695.593 64.5275C696.017 64.5824 696.448 64.5526 696.86 64.4398C706.004 62.0177 715.317 60.2828 724.72 59.2498C739.93 57.6498 747.07 57.6198 747.07 57.6198Z" fill="#FEFEFE"/>
<path d="M729.43 39.0899C723.94 37.6799 721 38.4199 719.15 40.2499C717.85 42.0859 717.174 44.2907 717.22 46.5399C717.088 47.6643 717.407 48.7954 718.108 49.6843C718.81 50.5732 719.836 51.1471 720.96 51.2799H721.35C723.598 51.521 725.871 51.2086 727.97 50.3699C728.151 50.2862 728.307 50.1578 728.424 49.9968C728.542 49.8358 728.616 49.6475 728.64 49.4499C728.88 47.4499 729.64 41.3199 729.9 39.5699C729.887 39.4485 729.834 39.335 729.749 39.2479C729.663 39.1607 729.551 39.105 729.43 39.0899ZM724.72 47.5399C724.72 47.5399 721.95 48.4799 721.65 46.5399C721.35 44.5999 722.12 42.4199 723.26 42.0199C723.936 41.7594 724.684 41.7594 725.36 42.0199L724.72 47.5399Z" fill="#FEFEFE"/>
<path d="M706.5 35.2798C706.445 35.0024 706.298 34.7521 706.081 34.5702C705.865 34.3883 705.593 34.2859 705.31 34.2798H702.59C702.231 34.2927 701.883 34.4064 701.586 34.6081C701.289 34.8097 701.055 35.091 700.91 35.4198L694.07 50.4198C694.07 50.6598 694.07 50.9798 694.31 50.9598H698.05C698.109 50.9537 698.165 50.9319 698.212 50.8967C698.26 50.8615 698.297 50.8142 698.32 50.7598L699.65 47.7598C699.675 47.7149 699.711 47.6774 699.755 47.6511C699.799 47.6247 699.849 47.6105 699.9 47.6098H704.03C704.095 47.6199 704.155 47.6491 704.203 47.6937C704.251 47.7382 704.285 47.796 704.3 47.8598L704.5 50.5298C704.508 50.6527 704.564 50.7677 704.655 50.85C704.747 50.9322 704.867 50.9753 704.99 50.9698H708.81C708.853 50.9725 708.897 50.9666 708.938 50.9525C708.979 50.9384 709.017 50.9163 709.049 50.8875C709.082 50.8587 709.109 50.8237 709.128 50.7846C709.146 50.7456 709.158 50.7031 709.16 50.6598V50.5398C708.81 48.5398 707.04 38.4698 706.5 35.2798ZM701.21 43.9998L703.21 39.0598ZM703.41 39.0598L703.85 43.9998V44.1998H701.38C701.38 44.1998 701.13 44.1198 701.16 43.9998L703.41 39.0598Z" fill="#FEFEFE"/>
<path d="M538.99 2.01424L486.4 8.64424C485.743 8.72847 485.139 9.04693 484.698 9.54112C484.257 10.0353 484.009 10.672 484 11.3342V59.6442C483.999 60.4115 484.149 61.1715 484.442 61.8807C484.735 62.5898 485.165 63.2341 485.708 63.7767C486.25 64.3192 486.894 64.7494 487.604 65.0424C488.313 65.3354 489.073 65.4856 489.84 65.4842H547.72C548.49 65.4895 549.253 65.3423 549.966 65.051C550.678 64.7598 551.326 64.3303 551.872 63.7874C552.418 63.2444 552.85 62.5987 553.145 61.8876C553.44 61.1765 553.591 60.4141 553.59 59.6442V19.8942C553.582 18.3524 552.963 16.8767 551.868 15.7912C550.773 14.7056 549.292 14.0989 547.75 14.1042H491.22C490.663 14.0583 490.148 13.7936 489.786 13.3681C489.424 12.9426 489.246 12.391 489.29 11.8342H540.34V3.83424C540.22 2.42424 539.69 1.90424 538.99 2.01424Z" fill="#F44336"/>
<path d="M518.9 55.4044C516.926 55.4397 514.967 55.0631 513.147 54.2986C511.327 53.5341 509.687 52.3985 508.33 50.9644L510.61 48.2744C511.676 49.4367 512.965 50.372 514.4 51.0244C515.807 51.6886 517.344 52.0302 518.9 52.0244C520.573 52.1227 522.227 51.6269 523.57 50.6244C524.1 50.2075 524.525 49.6716 524.81 49.0601C525.095 48.4486 525.232 47.7787 525.21 47.1044C525.241 46.4398 525.1 45.7785 524.8 45.1844C524.574 44.6471 524.232 44.1659 523.8 43.7744C523.321 43.3719 522.789 43.0356 522.22 42.7744L520.22 41.7744L515.66 39.9044C515.008 39.5852 514.383 39.214 513.79 38.7944C512.559 38.1791 511.53 37.2259 510.821 36.0464C510.113 34.8668 509.755 33.5099 509.79 32.1344C509.78 31.0448 510.019 29.9672 510.49 28.9844C510.964 27.9935 511.646 27.1167 512.49 26.4144C513.408 25.6442 514.483 25.0844 515.64 24.7744C516.861 24.3477 518.146 24.1313 519.44 24.1344C521.094 24.1265 522.733 24.4539 524.258 25.0966C525.782 25.7394 527.161 26.6844 528.31 27.8744L526.31 30.3844C525.457 29.4945 524.438 28.781 523.31 28.2844C522.118 27.7543 520.824 27.4947 519.52 27.5244C518.056 27.4583 516.611 27.8688 515.4 28.6944C514.908 29.0681 514.512 29.5549 514.248 30.1137C513.983 30.6724 513.857 31.2866 513.88 31.9044C513.849 32.553 513.991 33.1982 514.29 33.7744C514.582 34.2775 514.957 34.7272 515.4 35.1044C515.918 35.4775 516.463 35.8117 517.03 36.1044L518.84 36.9244L523.11 38.7344C523.92 39.1444 524.74 39.5544 525.5 40.0244C527.022 40.8842 528.198 42.2447 528.83 43.8744C529.146 44.8154 529.304 45.8019 529.3 46.7944C529.274 47.9072 529.016 49.0022 528.542 50.0095C528.069 51.0169 527.39 51.9143 526.55 52.6444C525.612 53.4708 524.522 54.106 523.34 54.5144C521.918 55.0501 520.419 55.3507 518.9 55.4044Z" fill="white"/>
<path d="M564.92 20.1845C566.347 21.057 567.987 21.5205 569.66 21.5245C572.34 21.5245 573.98 20.1245 573.98 18.0245C573.98 15.9245 572.87 15.0245 570.06 14.0245C567.25 13.0245 564.69 11.1045 564.69 8.15446C564.758 6.60698 565.435 5.1492 566.574 4.09982C567.714 3.05044 569.222 2.49483 570.77 2.55446H571.29C572.87 2.4973 574.439 2.84134 575.85 3.55446L575.09 5.71446C573.916 5.04216 572.583 4.69684 571.23 4.71446C568.43 4.71446 567.32 6.40446 567.32 7.80446C567.32 9.20446 568.6 10.6445 571.4 11.7745C574.2 12.9045 576.65 14.7745 576.65 17.6145C576.65 20.4545 574.32 23.4545 569.47 23.4545C567.629 23.4716 565.815 23.0062 564.21 22.1045L564.92 20.1845Z" fill="#F44336"/>
<path d="M579.49 2.25439H582.4V12.5344C582.884 11.8091 583.549 11.2231 584.33 10.8344C585.161 10.414 586.079 10.1947 587.01 10.1944C588.302 10.1701 589.552 10.6562 590.488 11.5473C591.424 12.4384 591.971 13.6626 592.01 14.9544C592.028 15.3163 592.001 15.6791 591.93 16.0344V23.7444H589.4V15.9744C589.4 13.9744 588.52 12.1244 586.07 12.1244C585.311 12.1384 584.572 12.3714 583.942 12.7954C583.312 13.2194 582.819 13.8163 582.52 14.5144C582.451 14.8812 582.451 15.2576 582.52 15.6244V23.4544H579.6L579.49 2.25439Z" fill="#F44336"/>
<path d="M607.85 16.8546C607.945 18.5865 607.349 20.2853 606.192 21.5775C605.035 22.8696 603.412 23.6491 601.68 23.7446H601.02C599.334 23.8123 597.689 23.208 596.448 22.0642C595.207 20.9205 594.47 19.331 594.4 17.6446C594.39 17.4648 594.39 17.2845 594.4 17.1046C594.307 15.3734 594.905 13.6761 596.061 12.3846C597.218 11.093 598.839 10.3127 600.57 10.2146H601.23C602.05 10.1659 602.871 10.2791 603.646 10.5478C604.422 10.8164 605.137 11.2353 605.751 11.7804C606.365 12.3255 606.865 12.9861 607.224 13.7247C607.582 14.4632 607.792 15.2651 607.84 16.0846C607.859 16.3408 607.863 16.598 607.85 16.8546ZM596.99 16.8546C596.919 17.4404 596.964 18.0344 597.122 18.6028C597.281 19.1712 597.55 19.7028 597.914 20.1671C598.278 20.6315 598.73 21.0196 599.244 21.3091C599.758 21.5987 600.324 21.784 600.91 21.8546H601.15C601.748 21.8178 602.332 21.6631 602.869 21.3995C603.407 21.136 603.887 20.7687 604.282 20.3188C604.677 19.869 604.979 19.3455 605.171 18.7784C605.363 18.2113 605.441 17.6119 605.4 17.0146V16.7746C605.513 16.2264 605.517 15.6612 605.411 15.1115C605.306 14.5617 605.093 14.0381 604.785 13.5706C604.164 12.6263 603.192 11.9677 602.085 11.7396C600.978 11.5115 599.825 11.7327 598.881 12.3543C597.937 12.976 597.278 13.9474 597.05 15.0546C596.93 15.6217 596.93 16.2076 597.05 16.7746L596.99 16.8546Z" fill="#F44336"/>
<path d="M610.01 14.6944V10.4844H612.29V12.7044C613.021 11.692 614.05 10.9329 615.232 10.5329C616.415 10.1329 617.694 10.112 618.889 10.4731C620.085 10.8341 621.137 11.5591 621.901 12.5471C622.665 13.535 623.101 14.7366 623.15 15.9844C623.15 16.2511 623.15 16.5211 623.15 16.7944C623.233 17.6205 623.152 18.4548 622.913 19.2497C622.673 20.0445 622.279 20.7844 621.753 21.4271C621.228 22.0697 620.581 22.6024 619.849 22.9949C619.118 23.3874 618.316 23.6319 617.49 23.7144H616.75C615.912 23.7632 615.075 23.6064 614.312 23.2578C613.548 22.9093 612.882 22.3794 612.37 21.7144V30.8244H609.86L610.01 14.6944ZM612.53 18.1944C612.49 18.5065 612.49 18.8224 612.53 19.1344C612.772 19.9607 613.282 20.6835 613.978 21.19C614.675 21.6965 615.519 21.9583 616.38 21.9344C619.07 21.9344 620.64 19.9344 620.64 16.9344C620.784 15.798 620.471 14.6508 619.77 13.745C619.069 12.8392 618.036 12.2491 616.9 12.1044C616.753 12.0944 616.606 12.0944 616.46 12.1044C615.589 12.117 614.746 12.407 614.052 12.9322C613.357 13.4573 612.849 14.1903 612.6 15.0244C612.58 15.3341 612.58 15.6448 612.6 15.9544L612.53 18.1944Z" fill="#F44336"/>
<path d="M628.12 17.3842C628.087 17.9509 628.167 18.5185 628.354 19.0544C628.541 19.5904 628.832 20.0842 629.21 20.5077C629.588 20.9312 630.046 21.276 630.557 21.5225C631.068 21.769 631.623 21.9123 632.19 21.9442C632.389 21.9643 632.59 21.9643 632.79 21.9442C634.09 21.963 635.382 21.7251 636.59 21.2442L637.06 22.9342C635.588 23.5052 634.019 23.7837 632.44 23.7542C630.808 23.8985 629.185 23.3886 627.928 22.3366C626.672 21.2845 625.885 19.7765 625.74 18.1442C625.71 17.8416 625.71 17.5368 625.74 17.2342C625.578 15.5396 626.097 13.8501 627.18 12.5374C628.264 11.2247 629.825 10.3963 631.52 10.2342C631.823 10.2142 632.127 10.2142 632.43 10.2342C633.197 10.2316 633.957 10.3805 634.667 10.6723C635.377 10.9641 636.022 11.3931 636.565 11.9347C637.109 12.4763 637.54 13.1199 637.834 13.8286C638.128 14.5372 638.28 15.2969 638.28 16.0642V16.3642C638.33 16.7158 638.33 17.0727 638.28 17.4242L628.12 17.3842ZM635.42 15.4542C635.48 15.0113 635.452 14.5608 635.337 14.1289C635.222 13.6969 635.023 13.292 634.75 12.9377C634.478 12.5833 634.138 12.2866 633.75 12.0645C633.362 11.8425 632.933 11.6997 632.49 11.6442H631.99C630.993 11.6745 630.045 12.0848 629.34 12.7913C628.635 13.4978 628.227 14.4468 628.2 15.4442L635.42 15.4542Z" fill="#F44336"/>
<path d="M642.84 17.3844C642.774 18.5273 643.165 19.6495 643.926 20.5045C644.688 21.3595 645.757 21.8774 646.9 21.9444C647.103 21.9644 647.307 21.9644 647.51 21.9444C648.811 21.973 650.104 21.7348 651.31 21.2444L651.77 22.9344C650.321 23.5001 648.776 23.7786 647.22 23.7544C645.58 23.8905 643.952 23.3731 642.692 22.3149C641.431 21.2567 640.64 19.7433 640.49 18.1044C640.47 17.8214 640.47 17.5374 640.49 17.2544C640.42 16.4047 640.518 15.5496 640.779 14.7379C641.04 13.9262 641.458 13.1738 642.01 12.5237C642.561 11.8737 643.236 11.3387 643.994 10.9493C644.753 10.5599 645.58 10.3238 646.43 10.2544H646.98C648.527 10.2544 650.011 10.8683 651.106 11.9614C652.201 13.0544 652.817 14.5373 652.82 16.0844V17.4444L642.84 17.3844ZM649.96 15.4544C650.015 15.0151 649.982 14.5694 649.864 14.1426C649.747 13.7159 649.546 13.3166 649.274 12.9674C649.002 12.6182 648.664 12.3261 648.279 12.1077C647.894 11.8892 647.469 11.7488 647.03 11.6944H646.47C645.472 11.7245 644.523 12.1345 643.816 12.8408C643.11 13.547 642.7 14.4961 642.67 15.4944L649.96 15.4544Z" fill="#F44336"/>
<path d="M591.15 40.6444C591.267 42.3188 591.053 43.9999 590.52 45.5915C589.988 47.1832 589.147 48.6544 588.045 49.921C586.944 51.1876 585.604 52.2249 584.102 52.9736C582.599 53.7223 580.964 54.1677 579.29 54.2844C578.85 54.2844 578.41 54.2844 577.97 54.2844H569.79V65.6444H563.25V27.5444H577.97C581.445 27.5651 584.774 28.9495 587.239 31.3995C589.704 33.8495 591.108 37.1693 591.15 40.6444ZM583.91 40.9344C584.03 39.2079 583.496 37.4995 582.414 36.1487C581.332 34.798 579.781 33.904 578.07 33.6444H569.77V48.1044H577.83C579.556 47.8767 581.135 47.0139 582.26 45.6845C583.384 44.355 583.972 42.6544 583.91 40.9144V40.9344Z" fill="#F44336"/>
<path d="M619.24 38.8143V65.6443H613.4V61.5343C612.314 63.0236 610.89 64.2342 609.246 65.0669C607.602 65.8995 605.783 66.3305 603.94 66.3243C600.583 66.2612 597.388 64.8703 595.054 62.4562C592.721 60.042 591.439 56.8015 591.49 53.4443C591.49 53.0227 591.52 52.6017 591.58 52.1843C591.206 48.8453 592.174 45.4946 594.271 42.8692C596.367 40.2438 599.421 38.5586 602.76 38.1843C603.11 38.1843 603.47 38.1243 603.83 38.1143C605.673 38.1082 607.492 38.5391 609.136 39.3718C610.78 40.2044 612.204 41.415 613.29 42.9043V38.8143H619.24ZM613.4 51.8143C613.446 49.7551 612.672 47.7621 611.248 46.2732C609.825 44.7844 607.869 43.9215 605.81 43.8743H605.49C604.493 43.8717 603.506 44.0654 602.584 44.4444C601.662 44.8234 600.824 45.3803 600.117 46.0832C599.411 46.7862 598.849 47.6214 598.465 48.5413C598.082 49.4611 597.883 50.4476 597.88 51.4443V51.9843C597.757 53.9174 598.406 55.8205 599.684 57.2755C600.963 58.7304 602.767 59.6184 604.7 59.7443H605.48C606.502 59.7629 607.517 59.58 608.468 59.206C609.419 58.8321 610.287 58.2745 611.023 57.565C611.758 56.8555 612.347 56.0081 612.755 55.0711C613.162 54.1342 613.382 53.1261 613.4 52.1043C613.41 52.0079 613.41 51.9107 613.4 51.8143Z" fill="#F44336"/>
<path d="M650.96 38.8145L635.3 75.6445H628.94L633.32 65.4145L621.99 38.8145H628.76L636.59 58.3845L644.12 38.8145H650.96Z" fill="#F44336"/>
<path d="M302.178 59.6058C295.697 65.5858 287.202 68.9062 278.383 68.9062C269.565 68.9062 261.069 65.5858 254.588 59.6058C248.587 53.7947 245.139 45.8377 245.004 37.4849C244.869 29.1322 248.058 21.0678 253.868 15.0658L254.558 14.3858C261.027 8.36235 269.535 5.00929 278.373 5.00002C287.212 4.99074 295.727 8.32594 302.208 14.3358C308.197 20.1375 311.64 28.0784 311.781 36.4157C311.921 44.753 308.748 52.8054 302.958 58.8058C302.718 59.0591 302.478 59.2991 302.238 59.5258M278.478 15.4358C272.959 15.3985 267.651 17.5496 263.715 21.4181C259.779 25.2866 257.536 30.5573 257.478 36.0758V37.0058C257.741 42.3916 260.066 47.4698 263.971 51.1885C267.875 54.9072 273.061 56.9814 278.453 56.9814C283.845 56.9814 289.031 54.9072 292.936 51.1885C296.84 47.4698 299.165 42.3916 299.428 37.0058C299.62 31.4819 297.61 26.1079 293.841 22.065C290.072 18.0221 284.852 15.6413 279.328 15.4458H278.508M380.958 12.5558L355.298 69.7958L353.868 69.5258C346.538 68.2058 345.048 66.3658 341.628 58.9258L322.378 16.9958H315.148V6.79581H342.458V16.9958H335.958L351.408 51.6458L366.408 16.9958H358.318V6.79581H380.958V12.5558ZM442.958 59.6058C436.48 65.5844 427.988 68.9041 419.173 68.9041C410.358 68.9041 401.866 65.5844 395.388 59.6058C389.394 53.788 385.956 45.8285 385.828 37.4766C385.701 29.1247 388.895 21.0638 394.708 15.0658L395.388 14.3858C401.866 8.40723 410.358 5.08748 419.173 5.08748C427.988 5.08748 436.48 8.40723 442.958 14.3858C448.953 20.1692 452.405 28.0968 452.555 36.4251C452.705 44.7534 449.541 52.8003 443.758 58.7958L442.958 59.5958M419.368 15.4358C416.627 15.4094 413.908 15.9231 411.366 16.9476C408.824 17.9722 406.508 19.4874 404.552 21.4068C402.595 23.3262 401.036 25.6122 399.963 28.1343C398.89 30.6564 398.324 33.3651 398.298 36.1058V37.0058C398.167 39.7636 398.58 42.5202 399.514 45.1183C400.448 47.7164 401.885 50.1051 403.742 52.1479C407.492 56.2737 412.729 58.7406 418.298 59.0058C423.868 59.271 429.314 57.3129 433.44 53.5622C437.566 49.8114 440.033 44.5754 440.298 39.0058C440.298 38.3258 440.298 37.6358 440.298 37.0058C440.498 31.4964 438.505 26.1326 434.756 22.0908C431.006 18.049 425.807 15.6593 420.298 15.4458H419.458" fill="#4B2489"/>
<path d="M121.467 35.1851C135.621 28.816 137.714 8.03174 117.581 8.03174H94.2645L85.6478 24.7932H89.7028L79.3962 64.8529H106.429C126.151 65.0204 135.021 41.9815 121.467 35.1851ZM106.429 50.2707H99.671L102.205 41.2198H108.625C116.229 42.7279 111.498 50.6057 106.429 50.2707ZM110.484 30.9945H104.74L106.429 23.1168H112.849C119.053 24.6255 113.695 31.3301 110.484 30.9945Z" fill="#005FAF" stroke="#005FAF" stroke-width="1.73022"/>
<path d="M176.816 29.4381L185.667 13.9363L173.69 7.73828L172.128 9.65114C165.666 6.25798 131.832 10.943 129.713 44.054C130.98 71.8304 162.353 66.8337 165.43 65.0715L174.059 47.3756C165.608 52.8979 148.304 55.549 147.572 38.9606C149.09 25.2812 165.37 20.1728 176.816 29.4381ZM220.986 8.03145H193.774L185.125 24.2912H189.568L169.061 64.8526H188.911L192.986 55.0692H205.171L205.474 64.8526H223.747L220.986 8.03145ZM198.506 41.897L205.17 26.117L205.474 41.897H198.506Z" fill="#005FAF" stroke="#005FAF" stroke-width="1.73022"/>
<path d="M51.0534 62.1407L52.1104 61.8365L50.9512 60.2471L51.0534 62.1407ZM33.699 61.8701L33.4946 63.291C34.0208 63.2399 34.6684 63.6899 34.9268 62.6821C34.9072 61.8965 34.3047 61.8535 33.699 61.8701ZM42.1209 61.8365C42.0332 61.4496 41.7076 61.1646 40.8934 61.431L41.1661 62.8848C41.835 62.7376 42.1791 62.3451 42.1209 61.8365ZM23.0957 60.6465L22.7701 61.9385C23.2933 61.9601 23.9062 62.381 24.2536 61.6154C24.2768 61.1357 24.2967 60.6582 23.0957 60.6465ZM41.4049 63.9676L41.6438 65.456C42.2024 65.4701 42.712 65.1371 42.5641 64.4415C42.4219 63.7723 41.8554 63.8782 41.4049 63.9676Z" fill="#005FAF"/>
<path d="M63.5776 8.79806C45.5232 -0.326431 23.9614 -0.0726645 6.75918 8.40011C-2.11129 23.8918 -2.39373 45.5672 6.75918 64.7647C25.7108 74.2791 46.6714 73.6522 63.7108 65.1628C71.7191 48.8636 73.0416 29.2506 63.5776 8.79806ZM33.0858 55.0564L32.0157 55.0683C31.7505 52.1347 31.0438 49.6691 29.5273 47.7822C22.5739 39.1316 8.35985 45.6444 12.0122 30.943C13.9113 23.427 35.5731 18.9943 33.0858 55.0564ZM12.0379 40.5361C13.5562 43.6019 23.0686 44.1041 26.3706 46.4508C31.6086 50.1733 30.8568 55.0697 30.8568 55.0697H29.6214C27.1894 47.6747 20.3638 53.53 14.8967 51.5383C11.4643 50.3272 8.97221 45.0772 12.0379 40.5361ZM29.3688 64.6441L29.8807 60.6189L30.801 60.6866L30.3917 65.1175C29.979 67.0694 27.0455 66.8083 26.6754 64.9483L27.1526 60.3483L28.2435 60.518L27.7664 64.3736C27.8269 65.6497 29.1171 65.5733 29.3688 64.6441ZM24.4706 65.7433L23.4212 65.4919C23.5443 64.6316 24.5728 62.8814 22.54 62.8814L21.9742 65.1689L20.8163 64.9536L22.0463 59.4616C25.0529 59.7866 25.316 60.6166 25.3755 61.5078C25.2568 62.1989 25.0713 62.6814 24.4711 62.7994C25.1735 63.4319 24.4793 64.7575 24.4706 65.7433ZM17.8058 59.5919C17.5166 59.9725 16.9377 61.3025 16.8539 62.3622C16.7648 63.4853 17.8524 63.2489 18.1232 63.1178C18.3417 63.0125 18.504 62.1103 18.504 62.1103L17.7424 61.8586L17.9962 61.1036L19.7103 61.67L18.8852 64.5039L18.1871 64.3144L18.2506 63.8736C17.396 64.2603 15.8317 63.9703 15.6481 62.9922C15.4645 62.2064 16.0206 59.8241 16.9174 58.7108C17.7889 57.6286 19.9123 58.6864 19.9641 59.3405C20.0155 59.9922 19.7563 60.7258 19.7563 60.7258L18.9569 60.5761C18.9569 60.5761 19.0059 60.3408 19.0756 59.9697C19.1493 59.5766 18.1159 59.183 17.8058 59.5919ZM33.3924 64.2039L33.188 66.6397L32.3357 66.6061L32.6423 60.8219C34.7706 60.8655 35.9906 61.1578 35.95 62.6486C35.8228 64.6855 34.1602 64.2275 33.3924 64.2039ZM35.5137 55.0694H34.088C33.9617 50.0603 34.9324 40.8983 32.2797 34.1558C30.2696 29.0445 25.1827 26.7452 24.0554 22.6162C22.2706 16.0808 25.3082 9.00953 35.5137 8.465C44.3614 9.36614 47.08 16.1423 45.5708 22.4514C42.976 28.7595 40.3807 27.853 37.1498 34.1366C34.511 40.8725 35.5157 49.6969 35.5137 55.0694ZM51.3262 64.3394L50.3375 64.6778L50.0303 58.86L51.1895 58.5558L54.0536 63.3586L53.2694 63.8661L52.3146 62.5136L51.2234 62.9191L51.3262 64.3394ZM39.7907 55.0694H38.6503C39.5902 42.2053 55.8848 45 57.3742 40.5361C59.9496 44.9614 59.0236 48.693 56.3345 50.6058C49.6518 55.3611 43.244 47.0866 39.7907 55.0694ZM45.8373 61.5664L46.3489 64.2386C46.6672 64.8541 46.8831 64.7403 47.3714 64.6783C47.9379 64.2716 47.8197 63.8755 47.7125 63.3589L48.7014 63.2239C48.959 65.16 48.0314 65.3575 47.3376 65.49C45.8499 65.5958 45.5582 65.3083 45.1555 63.393C44.9212 61.7539 44.516 60.0225 45.9056 59.7064C48.1862 59.3608 48.0516 60.3791 48.2582 61.0928L47.2692 61.2625C47.1113 60.6491 46.8842 60.4061 46.3828 60.4514C45.9258 60.6594 45.7385 60.9964 45.8373 61.5664ZM43.7575 64.3394C43.8048 65.1819 43.5167 65.7414 42.9732 65.9294L40.6545 66.4028L39.7339 60.8219C40.2096 60.745 42.5423 59.8972 43.1093 61.4314C43.3887 62.368 43.0989 62.7039 42.7682 63.1219C43.3954 63.3219 43.6071 63.8064 43.7575 64.3394ZM37.8033 36.3325C42.9687 21.9044 54.7881 24.4541 57.4094 30.9433C61.0007 43.9647 49.4367 40.3939 42.0293 45.7333C39.2296 48.1489 37.7565 50.9203 37.7347 55.1214H36.4654C36.3893 46.6594 36.2512 40.6678 37.8033 36.3325Z" fill="#005FAF"/>
</svg>
