<svg id="Layer_4" data-name="Layer 4" xmlns="http://www.w3.org/2000/svg" viewBox="0 0 32 32"><defs><style>.cls-1{fill:#f44336;}.cls-2{fill:#fff;}</style></defs><path class="cls-1" d="M11,9.7,2,10.83a.47.47,0,0,0-.41.46v8.28a1,1,0,0,0,1,1H12.5a1,1,0,0,0,1-1V12.76a1,1,0,0,0-1-1H2.82a.36.36,0,0,1-.33-.39h8.74V10C11.21,9.77,11.12,9.68,11,9.7Z"/><path class="cls-2" d="M7.56,18.84a2.43,2.43,0,0,1-1.81-.76l.39-.46a2,2,0,0,0,.65.47,1.77,1.77,0,0,0,.77.18,1.21,1.21,0,0,0,.8-.24.73.73,0,0,0,.28-.61.67.67,0,0,0-.07-.33.69.69,0,0,0-.18-.24,1.14,1.14,0,0,0-.27-.17l-.34-.17L7,16.19A2.09,2.09,0,0,1,6.68,16,1.24,1.24,0,0,1,6,14.86a1.25,1.25,0,0,1,.12-.54,1.31,1.31,0,0,1,.34-.44A1.4,1.4,0,0,1,7,13.6a1.93,1.93,0,0,1,.65-.11,2.07,2.07,0,0,1,.86.18,2.11,2.11,0,0,1,.66.46l-.35.43a1.62,1.62,0,0,0-.52-.36,1.51,1.51,0,0,0-.65-.13,1.16,1.16,0,0,0-.7.2.66.66,0,0,0-.26.55.63.63,0,0,0,.07.32.87.87,0,0,0,.2.23,2.61,2.61,0,0,0,.28.17l.31.14.73.31c.14.07.28.14.41.22a1.38,1.38,0,0,1,.34.28,1.33,1.33,0,0,1,.23.38,1.54,1.54,0,0,1,.08.5,1.36,1.36,0,0,1-.47,1,1.66,1.66,0,0,1-.55.32A2.38,2.38,0,0,1,7.56,18.84Z"/><path class="cls-1" d="M15.44,12.81a1.55,1.55,0,0,0,.81.23c.46,0,.74-.24.74-.6s-.19-.51-.67-.69-.92-.5-.92-1a1,1,0,0,1,1.13-.95,1.61,1.61,0,0,1,.78.17l-.13.37a1.29,1.29,0,0,0-.66-.17c-.48,0-.67.29-.67.53s.22.48.7.67.9.52.9,1-.4,1-1.23,1a1.78,1.78,0,0,1-.9-.23Z"/><path class="cls-1" d="M17.93,9.74h.5V11.5h0a.85.85,0,0,1,.33-.29,1,1,0,0,1,.46-.11.84.84,0,0,1,.85,1v1.32h-.44V12.09c0-.35-.15-.66-.57-.66a.67.67,0,0,0-.61.41.5.5,0,0,0,0,.19v1.34h-.5Z"/><path class="cls-1" d="M22.79,12.24a1.12,1.12,0,0,1-1.17,1.18,1.09,1.09,0,0,1-1.13-1.14,1.12,1.12,0,0,1,1.17-1.18A1.07,1.07,0,0,1,22.79,12.24Zm-1.86,0a.77.77,0,0,0,.71.85.78.78,0,0,0,.72-.87.73.73,0,1,0-1.43,0Z"/><path class="cls-1" d="M23.16,11.87c0-.28,0-.51,0-.72h.39l0,.38h0a1,1,0,0,1,.85-.43,1,1,0,0,1,1,1.13,1.08,1.08,0,0,1-1.09,1.19.88.88,0,0,1-.75-.35h0v1.56h-.43Zm.43.6a.78.78,0,0,0,0,.16.67.67,0,0,0,.66.48c.46,0,.73-.35.73-.86a.74.74,0,0,0-.72-.83.7.7,0,0,0-.66.5.9.9,0,0,0,0,.16Z"/><path class="cls-1" d="M26.26,12.33a.74.74,0,0,0,.8.78,1.67,1.67,0,0,0,.65-.12l.08.29a2.09,2.09,0,0,1-.79.14,1.06,1.06,0,0,1-1.15-1.12A1.1,1.1,0,0,1,27,11.1a1,1,0,0,1,1,1.05.74.74,0,0,1,0,.18ZM27.51,12a.58.58,0,0,0-.59-.65.67.67,0,0,0-.65.65Z"/><path class="cls-1" d="M28.78,12.33a.74.74,0,0,0,.8.78,1.63,1.63,0,0,0,.65-.12l.08.29a2.08,2.08,0,0,1-.78.14,1.07,1.07,0,0,1-1.16-1.12,1.11,1.11,0,0,1,1.11-1.2,1,1,0,0,1,1,1.05c0,.08,0,.14,0,.18ZM30,12a.58.58,0,0,0-.59-.65.67.67,0,0,0-.65.65Z"/><path class="cls-1" d="M19.93,16.31a2.19,2.19,0,0,1-2.26,2.34h-1.4v1.94H15.15V14.07h2.52A2.27,2.27,0,0,1,19.93,16.31Zm-1.24.05a1.18,1.18,0,0,0-1-1.24H16.27v2.47h1.38A1.19,1.19,0,0,0,18.69,16.36Z"/><path class="cls-1" d="M24.74,16v4.6h-1v-.71a2,2,0,0,1-1.62.82A2.17,2.17,0,0,1,20,18.29a2.17,2.17,0,0,1,2.1-2.41,2,2,0,0,1,1.62.82V16Zm-1,2.23a1.33,1.33,0,0,0-1.35-1.36,1.3,1.3,0,0,0-1.3,1.39,1.25,1.25,0,0,0,1.3,1.33A1.33,1.33,0,0,0,23.73,18.22Z"/><path class="cls-1" d="M30.17,16,27.49,22.3H26.4l.75-1.75L25.21,16h1.16l1.34,3.35L29,16Z"/></svg>