<svg width="1681" height="893" viewBox="0 0 1681 893" fill="none" xmlns="http://www.w3.org/2000/svg">
<path d="M862 57.0938C862 162.964 351.626 279.821 312.98 279.821C291.313 279.821 266.73 274.827 266.73 254.852C266.73 248.178 274.433 238.532 287.95 226.903L287.935 226.911L252.109 163.255C247.258 154.637 251.104 143.719 260.284 140.043L266.441 137.578C277.6 133.11 290.159 133.776 300.782 139.399L365.821 173.831C391.144 158.811 419.87 143.085 450.147 127.602L323.402 45.3728C313.375 38.8668 313.482 24.1528 323.603 17.7948L333.971 11.2808C351.227 0.439775 372.205 -2.76222 391.909 2.43478L602.759 58.0508C668.501 31.9568 727.94 14.1468 763.122 14.1468C772.518 14.1468 781.928 14.3958 791.009 15.0448L727.334 43.7898L725.81 65.2078L824.1 20.0248C847.661 25.6438 862 36.1308 862 57.0938ZM605.492 239.848L684.14 329.192C688.933 334.637 696.739 336.276 703.316 333.219L713.849 328.323C733.057 319.395 744.37 299.151 741.91 278.114L732.064 193.928C731.454 188.719 726.168 185.422 721.221 187.164L608.913 226.726C603.447 228.653 601.661 235.497 605.492 239.848Z" fill="#B892DA"/>
<path d="M243.253 397.094C244.2 383.718 240.649 373.36 232.599 366.021C224.669 358.682 212.121 355.013 194.957 355.013C183.594 355.013 173.887 356.492 165.838 359.452C157.789 362.293 151.456 366.317 146.839 371.526C142.223 376.616 139.323 382.534 138.139 389.281C137.074 394.608 137.37 399.343 139.027 403.486C140.684 407.629 143.584 411.298 147.727 414.494C151.989 417.69 157.256 420.472 163.53 422.839C169.922 425.207 177.083 427.278 185.014 429.054L214.844 436.156C232.126 440.062 247.1 445.271 259.766 451.781C272.55 458.173 282.907 465.927 290.838 475.041C298.769 484.037 304.214 494.395 307.173 506.114C310.133 517.832 310.369 530.972 307.884 545.531C304.096 568.495 295.04 588.204 280.717 604.658C266.513 621.111 247.929 633.718 224.964 642.477C202.119 651.237 175.545 655.616 145.241 655.616C114.938 655.616 89.1927 651.059 68.0043 641.945C46.9342 632.712 31.6643 618.803 22.1946 600.219C12.7249 581.634 10.1799 558.197 14.5597 529.906H98.544C97.242 541.625 98.7216 551.391 102.983 559.203C107.363 567.016 114.11 572.934 123.224 576.959C132.339 580.983 143.348 582.996 156.25 582.996C168.087 582.996 178.445 581.398 187.322 578.202C196.319 575.006 203.48 570.567 208.807 564.885C214.252 559.203 217.566 552.693 218.75 545.354C219.934 538.607 218.809 532.747 215.376 527.776C212.062 522.804 206.38 518.483 198.331 514.814C190.4 511.144 179.983 507.83 167.081 504.871L130.682 495.993C100.616 488.654 77.8291 476.935 62.3224 460.837C46.9342 444.738 41.4891 422.899 45.9872 395.318C49.7751 372.709 59.1264 352.941 74.0412 336.014C89.0743 319.087 108.073 305.948 131.037 296.597C154.119 287.127 179.51 282.392 207.209 282.392C235.381 282.392 259.055 287.186 278.232 296.774C297.526 306.244 311.435 319.62 319.957 336.902C328.598 354.066 331.084 374.13 327.415 397.094H243.253ZM424.893 579.445L442.472 475.929H454.368L547.763 378.273H646.129L509.055 518.188H486.151L424.893 579.445ZM334.872 651L395.241 287.364H482.067L421.697 651H334.872ZM504.261 651L451.705 537.719L519.354 476.107L604.581 651H504.261ZM674.006 753.273C663.589 753.273 653.883 752.444 644.886 750.787C636.009 749.248 628.433 747.177 622.159 744.572L651.989 681.54C659.92 684.381 667.199 685.979 673.828 686.334C680.575 686.807 686.612 685.683 691.939 682.96C697.384 680.356 702.119 675.68 706.143 668.933L711.115 660.588L661.222 378.273H748.935L766.69 573.053H769.531L852.983 378.273H947.621L795.455 677.101C787.76 692.016 778.468 705.214 767.578 716.696C756.688 728.178 743.549 737.115 728.161 743.507C712.891 750.018 694.839 753.273 674.006 753.273ZM935.458 651L995.827 287.364H1244.05L1231.98 358.741H1071.64L1059.57 433.315H1204.1L1192.03 504.871H1047.5L1023.35 651H935.458ZM1375.13 287.364L1314.76 651H1227.94L1288.31 287.364H1375.13ZM1406.43 753.273C1396.01 753.273 1386.3 752.444 1377.31 750.787C1368.43 749.248 1360.85 747.177 1354.58 744.572L1384.41 681.54C1392.34 684.381 1399.62 685.979 1406.25 686.334C1413 686.807 1419.03 685.683 1424.36 682.96C1429.81 680.356 1434.54 675.68 1438.57 668.933L1443.54 660.588L1393.64 378.273H1481.36L1499.11 573.053H1501.95L1585.4 378.273H1680.04L1527.88 677.101C1520.18 692.016 1510.89 705.214 1500 716.696C1489.11 728.178 1475.97 737.115 1460.58 743.507C1445.31 750.018 1427.26 753.273 1406.43 753.273Z" fill="#B892DA"/>
<path d="M303.959 869L316.033 796.273H365.678L363.263 810.548H331.196L328.781 825.463H357.688L355.273 839.774H326.366L321.537 869H303.959ZM361.381 869L370.472 814.455H387.339L385.67 824.398H386.239C387.825 820.799 389.896 818.124 392.453 816.372C395.01 814.597 397.78 813.709 400.763 813.709C401.568 813.709 402.373 813.768 403.178 813.886C404.006 813.981 404.787 814.123 405.521 814.312L402.964 829.44C402.16 829.133 401.106 828.908 399.804 828.766C398.502 828.6 397.318 828.517 396.253 828.517C394.193 828.517 392.276 828.979 390.5 829.902C388.748 830.802 387.257 832.068 386.026 833.702C384.818 835.312 384.025 837.205 383.646 839.384L378.746 869H361.381ZM426.065 870.03C420.312 870.03 415.565 868.846 411.825 866.479C408.108 864.111 405.492 860.809 403.977 856.571C402.461 852.333 402.165 847.409 403.089 841.798C404.012 836.211 405.918 831.311 408.806 827.097C411.694 822.883 415.388 819.604 419.886 817.26C424.384 814.916 429.486 813.744 435.191 813.744C440.92 813.744 445.643 814.928 449.36 817.295C453.101 819.663 455.728 822.965 457.244 827.203C458.782 831.441 459.09 836.377 458.167 842.011C457.244 847.598 455.326 852.499 452.414 856.713C449.502 860.903 445.809 864.17 441.335 866.514C436.86 868.858 431.77 870.03 426.065 870.03ZM428.018 856.926C430.148 856.926 432.054 856.287 433.735 855.009C435.44 853.73 436.872 851.943 438.032 849.646C439.192 847.35 440.021 844.687 440.518 841.656C441.015 838.673 441.062 836.057 440.66 833.808C440.281 831.536 439.476 829.772 438.245 828.517C437.014 827.239 435.345 826.599 433.238 826.599C431.107 826.599 429.19 827.25 427.485 828.553C425.781 829.831 424.348 831.618 423.188 833.915C422.052 836.187 421.235 838.851 420.738 841.905C420.241 844.888 420.182 847.504 420.56 849.753C420.939 852.002 421.756 853.766 423.011 855.044C424.265 856.299 425.934 856.926 428.018 856.926ZM462.659 869L471.75 814.455H488.263L486.629 824.469H487.233C488.89 821.154 491.234 818.538 494.264 816.621C497.295 814.703 500.68 813.744 504.42 813.744C508.185 813.744 511.25 814.715 513.618 816.656C516.009 818.598 517.299 821.202 517.489 824.469H518.057C519.619 821.225 522.034 818.633 525.301 816.692C528.592 814.727 532.261 813.744 536.31 813.744C541.423 813.744 545.318 815.402 547.993 818.716C550.692 822.007 551.556 826.528 550.585 832.281L544.477 869H527.148L532.688 836.259C533.066 833.536 532.664 831.464 531.48 830.044C530.32 828.6 528.627 827.878 526.402 827.878C524.011 827.878 522.01 828.647 520.401 830.186C518.814 831.725 517.832 833.808 517.453 836.436L511.949 869H495.223L500.798 836.081C501.153 833.548 500.763 831.547 499.626 830.08C498.514 828.612 496.821 827.878 494.548 827.878C493.057 827.878 491.672 828.245 490.393 828.979C489.115 829.689 488.038 830.707 487.162 832.033C486.31 833.358 485.753 834.921 485.493 836.72L480.024 869H462.659ZM616.494 814.455L614.328 827.239H579.918L582.084 814.455H616.494ZM591.423 801.386H608.788L600.408 851.848C600.242 852.913 600.266 853.777 600.479 854.44C600.715 855.08 601.142 855.541 601.757 855.825C602.396 856.086 603.178 856.216 604.101 856.216C604.74 856.216 605.45 856.145 606.232 856.003C607.013 855.861 607.605 855.754 608.007 855.683L608.575 868.219C607.652 868.479 606.409 868.775 604.847 869.107C603.308 869.462 601.509 869.687 599.449 869.781C595.282 869.947 591.838 869.462 589.115 868.325C586.416 867.165 584.51 865.366 583.398 862.928C582.309 860.489 582.096 857.435 582.759 853.766L591.423 801.386ZM640.092 837.892L634.907 869H617.542L629.616 796.273H646.413L641.796 824.469H642.4C644.152 821.107 646.59 818.479 649.715 816.585C652.84 814.691 656.462 813.744 660.582 813.744C664.37 813.744 667.542 814.597 670.099 816.301C672.656 817.982 674.467 820.361 675.532 823.439C676.597 826.517 676.787 830.115 676.1 834.234L670.276 869H652.911L658.167 837.643C658.64 834.613 658.25 832.246 656.995 830.541C655.74 828.837 653.728 827.984 650.958 827.984C649.135 827.984 647.454 828.387 645.915 829.192C644.4 829.973 643.134 831.098 642.116 832.565C641.098 834.033 640.423 835.809 640.092 837.892ZM706.365 870.03C700.659 870.03 695.924 868.905 692.16 866.656C688.42 864.384 685.792 861.152 684.277 856.962C682.761 852.748 682.489 847.741 683.46 841.94C684.407 836.306 686.336 831.382 689.248 827.168C692.184 822.93 695.877 819.639 700.328 817.295C704.779 814.928 709.738 813.744 715.207 813.744C719.09 813.744 722.534 814.348 725.541 815.555C728.547 816.763 731.033 818.562 732.998 820.953C734.963 823.321 736.301 826.232 737.011 829.689C737.721 833.145 737.698 837.111 736.94 841.585L736.265 845.918H688.893L690.491 835.832H721.741C722.025 833.986 721.871 832.34 721.279 830.896C720.688 829.452 719.729 828.328 718.403 827.523C717.101 826.694 715.503 826.28 713.609 826.28C711.691 826.28 709.892 826.73 708.211 827.629C706.554 828.505 705.145 829.689 703.985 831.18C702.825 832.672 702.068 834.353 701.713 836.223L699.831 846.557C699.452 848.853 699.558 850.818 700.15 852.452C700.742 854.085 701.76 855.34 703.204 856.216C704.648 857.068 706.507 857.494 708.779 857.494C710.295 857.494 711.715 857.293 713.041 856.891C714.367 856.464 715.55 855.837 716.592 855.009C717.657 854.156 718.521 853.126 719.184 851.919L735.022 852.381C733.744 855.955 731.767 859.069 729.092 861.72C726.417 864.348 723.15 866.396 719.291 867.864C715.456 869.308 711.147 870.03 706.365 870.03ZM810.44 818.219C810.629 815.544 809.919 813.472 808.309 812.004C806.723 810.536 804.213 809.803 800.781 809.803C798.508 809.803 796.567 810.098 794.957 810.69C793.347 811.259 792.08 812.063 791.157 813.105C790.234 814.123 789.654 815.307 789.417 816.656C789.204 817.722 789.263 818.669 789.594 819.497C789.926 820.326 790.506 821.06 791.335 821.699C792.187 822.338 793.24 822.894 794.495 823.368C795.773 823.841 797.206 824.256 798.792 824.611L804.758 826.031C808.214 826.812 811.209 827.854 813.742 829.156C816.299 830.435 818.371 831.985 819.957 833.808C821.543 835.607 822.632 837.679 823.224 840.023C823.816 842.366 823.863 844.994 823.366 847.906C822.608 852.499 820.797 856.441 817.933 859.732C815.092 863.022 811.375 865.544 806.782 867.295C802.213 869.047 796.898 869.923 790.837 869.923C784.777 869.923 779.628 869.012 775.39 867.189C771.176 865.342 768.122 862.561 766.228 858.844C764.334 855.127 763.825 850.439 764.701 844.781H781.498C781.237 847.125 781.533 849.078 782.386 850.641C783.262 852.203 784.611 853.387 786.434 854.192C788.257 854.997 790.459 855.399 793.039 855.399C795.406 855.399 797.478 855.08 799.254 854.44C801.053 853.801 802.485 852.913 803.55 851.777C804.639 850.641 805.302 849.339 805.539 847.871C805.776 846.521 805.551 845.349 804.864 844.355C804.201 843.361 803.065 842.497 801.455 841.763C799.869 841.029 797.786 840.366 795.205 839.774L787.925 837.999C781.912 836.531 777.355 834.187 774.254 830.967C771.176 827.748 770.087 823.38 770.987 817.864C771.744 813.342 773.614 809.388 776.597 806.003C779.604 802.617 783.404 799.99 787.996 798.119C792.613 796.225 797.691 795.278 803.231 795.278C808.865 795.278 813.6 796.237 817.435 798.155C821.294 800.049 824.076 802.724 825.781 806.18C827.509 809.613 828.006 813.626 827.272 818.219H810.44ZM846.768 854.689L850.283 833.986H852.663L871.342 814.455H891.015L863.6 842.438H859.019L846.768 854.689ZM828.763 869L840.837 796.273H858.202L846.129 869H828.763ZM862.641 869L852.13 846.344L865.66 834.021L882.705 869H862.641ZM896.59 889.455C894.507 889.455 892.566 889.289 890.766 888.957C888.991 888.65 887.476 888.235 886.221 887.714L892.187 875.108C893.773 875.676 895.229 875.996 896.555 876.067C897.904 876.161 899.112 875.937 900.177 875.392C901.266 874.871 902.213 873.936 903.018 872.587L904.012 870.918L894.033 814.455H911.576L915.127 853.411H915.695L932.386 814.455H951.313L920.88 874.22C919.341 877.203 917.483 879.843 915.305 882.139C913.127 884.436 910.499 886.223 907.421 887.501C904.367 888.804 900.757 889.455 896.59 889.455ZM964.887 859.057L963.858 862.999C963.053 866.266 961.952 869.45 960.555 872.551C959.182 875.676 957.821 878.482 956.471 880.967C955.122 883.453 954.045 885.383 953.24 886.756H942.302C942.847 885.477 943.652 883.583 944.717 881.074C945.806 878.564 946.895 875.735 947.984 872.587C949.073 869.438 949.902 866.254 950.47 863.034L951.251 859.057H964.887ZM993.412 869L1005.49 796.273H1055.13L1052.72 810.548H1020.65L1018.23 825.463H1047.14L1044.73 839.774H1015.82L1010.99 869H993.412ZM1073.33 870.03C1067.58 870.03 1062.83 868.846 1059.09 866.479C1055.37 864.111 1052.76 860.809 1051.24 856.571C1049.73 852.333 1049.43 847.409 1050.35 841.798C1051.28 836.211 1053.18 831.311 1056.07 827.097C1058.96 822.883 1062.65 819.604 1067.15 817.26C1071.65 814.916 1076.75 813.744 1082.46 813.744C1088.19 813.744 1092.91 814.928 1096.63 817.295C1100.37 819.663 1102.99 822.965 1104.51 827.203C1106.05 831.441 1106.36 836.377 1105.43 842.011C1104.51 847.598 1102.59 852.499 1099.68 856.713C1096.77 860.903 1093.07 864.17 1088.6 866.514C1084.13 868.858 1079.04 870.03 1073.33 870.03ZM1075.28 856.926C1077.41 856.926 1079.32 856.287 1081 855.009C1082.71 853.73 1084.14 851.943 1085.3 849.646C1086.46 847.35 1087.29 844.687 1087.78 841.656C1088.28 838.673 1088.33 836.057 1087.93 833.808C1087.55 831.536 1086.74 829.772 1085.51 828.517C1084.28 827.239 1082.61 826.599 1080.5 826.599C1078.37 826.599 1076.46 827.25 1074.75 828.553C1073.05 829.831 1071.61 831.618 1070.45 833.915C1069.32 836.187 1068.5 838.851 1068 841.905C1067.51 844.888 1067.45 847.504 1067.83 849.753C1068.2 852.002 1069.02 853.766 1070.28 855.044C1071.53 856.299 1073.2 856.926 1075.28 856.926ZM1109.82 869L1118.91 814.455H1135.78L1134.11 824.398H1134.68C1136.26 820.799 1138.33 818.124 1140.89 816.372C1143.45 814.597 1146.22 813.709 1149.2 813.709C1150.01 813.709 1150.81 813.768 1151.62 813.886C1152.44 813.981 1153.22 814.123 1153.96 814.312L1151.4 829.44C1150.6 829.133 1149.54 828.908 1148.24 828.766C1146.94 828.6 1145.76 828.517 1144.69 828.517C1142.63 828.517 1140.71 828.979 1138.94 829.902C1137.19 830.802 1135.69 832.068 1134.46 833.702C1133.26 835.312 1132.46 837.205 1132.08 839.384L1127.18 869H1109.82ZM1181.84 796.273H1201.48L1211.78 826.706H1212.53L1232.87 796.273H1252.51L1217.89 844.71L1213.84 869H1196.37L1200.45 844.71L1181.84 796.273ZM1260.63 870.03C1254.88 870.03 1250.14 868.846 1246.39 866.479C1242.68 864.111 1240.06 860.809 1238.55 856.571C1237.03 852.333 1236.74 847.409 1237.66 841.798C1238.58 836.211 1240.49 831.311 1243.38 827.097C1246.26 822.883 1249.96 819.604 1254.46 817.26C1258.95 814.916 1264.06 813.744 1269.76 813.744C1275.49 813.744 1280.21 814.928 1283.93 817.295C1287.67 819.663 1290.3 822.965 1291.81 827.203C1293.35 831.441 1293.66 836.377 1292.74 842.011C1291.81 847.598 1289.9 852.499 1286.98 856.713C1284.07 860.903 1280.38 864.17 1275.9 866.514C1271.43 868.858 1266.34 870.03 1260.63 870.03ZM1262.59 856.926C1264.72 856.926 1266.62 856.287 1268.31 855.009C1270.01 853.73 1271.44 851.943 1272.6 849.646C1273.76 847.35 1274.59 844.687 1275.09 841.656C1275.59 838.673 1275.63 836.057 1275.23 833.808C1274.85 831.536 1274.05 829.772 1272.82 828.517C1271.58 827.239 1269.92 826.599 1267.81 826.599C1265.68 826.599 1263.76 827.25 1262.06 828.553C1260.35 829.831 1258.92 831.618 1257.76 833.915C1256.62 836.187 1255.81 838.851 1255.31 841.905C1254.81 844.888 1254.75 847.504 1255.13 849.753C1255.51 852.002 1256.33 853.766 1257.58 855.044C1258.84 856.299 1260.5 856.926 1262.59 856.926ZM1336.22 845.456L1341.41 814.455H1358.74L1349.64 869H1333.1L1334.76 858.844H1334.2C1332.52 862.182 1330.04 864.833 1326.77 866.798C1323.51 868.74 1319.83 869.71 1315.73 869.71C1312.01 869.71 1308.89 868.858 1306.36 867.153C1303.82 865.449 1302.02 863.07 1300.96 860.016C1299.92 856.938 1299.73 853.339 1300.39 849.22L1306.21 814.455H1323.58L1318.36 845.811C1317.91 848.77 1318.3 851.102 1319.53 852.807C1320.79 854.511 1322.75 855.364 1325.43 855.364C1327.15 855.364 1328.78 854.985 1330.29 854.227C1331.81 853.446 1333.08 852.321 1334.13 850.854C1335.19 849.362 1335.89 847.563 1336.22 845.456Z" fill="#B892DA"/>
</svg>
